<svg xmlns="http://www.w3.org/2000/svg" xmlns:xlink="http://www.w3.org/1999/xlink" width="101" height="44" viewBox="0 0 101 44">
    <defs>
        <path id="prefix__a" d="M0.033 0.438L1.116 0.438 1.116 1.517 0.033 1.517z"/>
        <path id="prefix__c" d="M0.308 0.1L4.243 0.1 4.243 4.046 0.308 4.046z"/>
        <path id="prefix__e" d="M0 43.67L100.353 43.67 100.353 0 0 0z"/>
    </defs>
    <g fill="none" fill-rule="evenodd">
        <g transform="translate(68.782 42.153)">
            <mask id="prefix__b" fill="#fff">
                <use xlink:href="#prefix__a"/>
            </mask>
            <path fill="#07601F" d="M.574.438c.15 0 .278.053.384.158.105.103.158.23.158.38s-.053.276-.158.382c-.106.106-.235.16-.384.16-.148 0-.277-.054-.381-.16-.107-.106-.16-.232-.16-.383 0-.149.053-.276.16-.38C.297.492.426.439.574.439" mask="url(#prefix__b)"/>
        </g>
        <path fill="#07601F" d="M74.493 40.58l-.785.432c-.148-.155-.292-.262-.435-.32-.146-.06-.313-.09-.508-.09-.35 0-.636.102-.854.315-.217.209-.327.479-.327.807 0 .318.106.578.316.782.209.202.484.304.823.304.424 0 .75-.146.985-.432l.744.507c-.405.524-.973.785-1.703.785-.661 0-1.178-.193-1.551-.587-.376-.39-.56-.847-.56-1.372 0-.362.088-.698.27-1.003.181-.307.437-.545.76-.72.328-.177.689-.263 1.093-.263.372 0 .708.073 1.004.222.296.149.54.358.728.633"/>
        <g transform="translate(74.85 39.624)">
            <mask id="prefix__d" fill="#fff">
                <use xlink:href="#prefix__c"/>
            </mask>
            <path fill="#07601F" d="M2.268.987c-.292 0-.537.101-.732.306-.193.204-.29.464-.29.78 0 .327.096.592.289.793.192.203.434.304.729.304s.541-.102.736-.305c.196-.207.294-.47.294-.793 0-.32-.097-.582-.288-.782-.193-.202-.439-.303-.738-.303M2.253.1c.354 0 .686.09.998.266.31.177.554.419.73.722.174.303.262.63.262.983 0 .354-.089.685-.264.992-.176.31-.415.55-.719.723-.304.173-.64.26-1.003.26-.54 0-.999-.19-1.38-.574-.38-.384-.569-.848-.569-1.395C.308 1.49.523 1 .953.612 1.33.27 1.763.1 2.253.1" mask="url(#prefix__d)"/>
        </g>
        <path fill="#07601F" d="M79.856 39.821h.941v.432c.16-.177.34-.31.538-.397.196-.087.41-.131.643-.131.233 0 .447.057.635.172.187.114.34.283.454.504.15-.22.335-.39.552-.504.216-.115.454-.172.713-.172.266 0 .502.061.703.186.202.123.35.285.438.486.088.2.132.526.132.977v2.2h-.949v-1.903c0-.426-.052-.716-.158-.866-.106-.15-.265-.225-.476-.225-.16 0-.305.045-.432.138-.127.092-.222.218-.287.38-.06.165-.092.424-.092.783v1.693h-.949v-1.818c0-.337-.024-.58-.074-.729-.048-.15-.124-.263-.222-.336-.1-.075-.22-.11-.36-.11-.157 0-.298.045-.427.137-.127.094-.224.226-.286.393-.064.169-.096.433-.096.793v1.67h-.941v-3.753z"/>
        <path fill="#6CB537" d="M85.305 21.138L87.459 21.138 92.901 33.335 98.182 21.138 100.353 21.138 90.581 43.574 88.43 43.574 91.804 35.776zM66.985 19.536l-1.688 1.296c-.932-1.212-2.05-2.131-3.355-2.757-1.304-.626-2.738-.94-4.3-.94-1.707 0-3.288.41-4.744 1.232-1.455.819-2.582 1.92-3.382 3.303-.8 1.384-1.201 2.942-1.201 4.667 0 2.61.896 4.788 2.685 6.535 1.79 1.745 4.048 2.62 6.773 2.62 3 0 5.505-1.176 7.524-3.523l1.688 1.28c-1.067 1.359-2.399 2.409-3.995 3.151-1.596.743-3.378 1.113-5.347 1.113-3.745 0-6.699-1.245-8.862-3.739-1.815-2.106-2.721-4.647-2.721-7.624 0-3.136 1.098-5.776 3.295-7.914 2.198-2.14 4.951-3.21 8.259-3.21 1.998 0 3.803.395 5.412 1.186 1.61.792 2.932 1.9 3.96 3.324"/>
        <path fill="#07601F" d="M15.995 27.457c-.271-1.086-.668-1.953-1.187-2.604-.519-.65-1.207-1.175-2.062-1.572-.854-.4-1.752-.6-2.696-.6-1.553 0-2.888.504-4.006 1.504-.816.725-1.432 1.818-1.85 3.272h11.8zm0 4.266l1.717.901c-.563 1.107-1.212 1.998-1.952 2.677-.738.68-1.568 1.196-2.49 1.55-.923.355-1.966.532-3.131.532-2.584 0-4.602-.847-6.059-2.54-1.456-1.692-2.186-3.607-2.186-5.74 0-2.008.617-3.798 1.85-5.37 1.564-2.004 3.655-3.002 6.278-3.002 2.698 0 4.854 1.024 6.467 3.075 1.146 1.446 1.728 3.25 1.747 5.413H3.99c.04 1.84.627 3.346 1.763 4.523 1.137 1.176 2.54 1.763 4.21 1.763.807 0 1.591-.14 2.354-.42.761-.28 1.411-.652 1.944-1.116.535-.464 1.112-1.214 1.734-2.246zM28.554 15.027v1.993c-.748-.32-1.388-.48-1.921-.48-.398 0-.728.08-.99.24-.261.16-.426.343-.494.553-.069.208-.102.764-.102 1.666l-.002 2.139h3.305V22.9h-3.306l-.012 14.076h-2.038V22.9h-2.08v-1.762h2.08v-2.474c0-1.135.105-1.945.315-2.43.208-.484.561-.875 1.061-1.171.5-.296 1.104-.444 1.812-.444.659 0 1.451.135 2.372.408M37.91 15.027v1.993c-.747-.32-1.387-.48-1.921-.48-.398 0-.726.08-.989.24-.262.16-.428.343-.494.553-.07.208-.103.764-.103 1.666v2.139h3.304V22.9H34.4l-.013 14.076h-2.037V22.9h-2.08v-1.762h2.08v-2.474c0-1.135.104-1.945.313-2.43.21-.484.564-.875 1.063-1.171.5-.296 1.104-.444 1.812-.444.659 0 1.45.135 2.372.408"/>
        <mask id="prefix__f" fill="#fff">
            <use xlink:href="#prefix__e"/>
        </mask>
        <path fill="#07601F" d="M40.443 36.976L42.481 36.976 42.481 21.138 40.443 21.138z" mask="url(#prefix__f)"/>
        <path fill="#6CB537" d="M78.685 15.259L80.722 15.259 80.722 21.138 83.952 21.138 83.952 22.901 80.722 22.901 80.722 36.976 78.685 36.976 78.685 22.901 75.906 22.901 75.906 21.138 78.685 21.138z" mask="url(#prefix__f)"/>
        <path fill="#005E1D" d="M43.031 16.19c0 .864-.704 1.568-1.57 1.568-.866 0-1.57-.704-1.57-1.569 0-.868.704-1.57 1.57-1.57.866 0 1.57.702 1.57 1.57" mask="url(#prefix__f)"/>
        <path fill="#6CB537" d="M70.637 36.976L72.674 36.976 72.674 21.138 70.637 21.138zM73.225 16.19c0 .864-.703 1.568-1.57 1.568-.866 0-1.57-.704-1.57-1.569 0-.868.704-1.57 1.57-1.57.867 0 1.57.702 1.57 1.57M30.572 0l-8.305 5.912V1.504H14.47v9.959L0 22.226h2.776l13.337-9.676V2.844h4.528V7.07h-.002v2.257l9.716-6.916 19.56 13.917.025-.004.014-.01c.57-.472 1.18-.885 1.83-1.233L30.572 0z" mask="url(#prefix__f)"/>
    </g>
</svg>

