<svg id="Layer_1" data-name="Layer 1" xmlns="http://www.w3.org/2000/svg" viewBox="0 0 800 158.653"><defs><style>.cls-1{fill:#58b57b}.cls-2{fill:#1d1d1b}.cls-3{fill:#fff}</style></defs><rect class="cls-1" width="296.25" height="151.338" rx="12.698" ry="12.698"/><path class="cls-2" d="M347.76 88.217c9.61-.528 18.383-.448 26.994-1.592 21.71-2.885 35.03-18.35 34.589-39.372-.311-14.788-8.614-25.616-23.352-26.831-13.936-1.149-28.084.23-42.137.574-3.397.083-4.955 2.106-5.46 5.433-.904 5.965-2.113 11.883-3.16 17.826-4.686 26.59-9.314 53.19-14.095 79.761-.607 3.372.643 4.252 3.633 4.173a69.551 69.551 0 0 1 9.58.05c4.866.548 6.803-1.39 7.518-6.202 1.697-11.413 3.928-22.746 5.89-33.82zm217.548 40.951c6.632 0 12.68.306 18.686-.06 15.619-.947 27.264-8.057 32.758-23.155a92.37 92.37 0 0 0 5.91-36.496c-.623-12.081-7.57-20.698-19.385-23.143-13.778-2.85-27.378-.286-40.723 3.27-1.498.4-3.08 3.056-3.41 4.885-5.839 32.323-11.463 64.683-17.21 97.022-.741 4.167.502 5.968 4.903 5.6 3.17-.266 6.383-.054 9.576-.033 2.77.018 4.2-1.127 4.664-4.07 1.273-8.089 2.844-16.13 4.23-23.82zM43.165 64.807c1.286-6.834 2.177-13.146 3.713-19.297 1.577-6.32 5.102-8.833 11.693-8.928 8.408-.121 16.819-.04 25.228-.042 8.711-.003 8.711-.001 10.048-8.425.993-6.258.64-7.108-5.714-7.55-9.712-.674-19.463-1.174-29.193-1.11-18.634.124-29.128 8.888-32.539 27.132q-5.222 27.937-9.772 55.998c-2.189 13.345 5.032 24.252 18.559 25.676 11.569 1.219 23.396-.002 35.109-.157 4.608-.06 7.058-2.332 7.192-7.022a11.799 11.799 0 0 1 .482-3.485c1.618-4.67-.669-5.43-4.712-5.353-9.416.18-18.838.142-28.255-.003-5.592-.085-8.627-2.447-8.22-7.306.666-7.952 2.2-15.831 3.398-23.934 12.944 0 25.209.079 37.47-.09 1.738-.023 4.642-.886 4.98-1.985 1.34-4.343 1.872-8.934 2.83-14.12zm185.573 29.638a1.378 1.378 0 0 1 .464-.192c14.808-.054 29.617-.207 44.423-.064 3.632.036 5.474-1.422 5.775-4.734.593-6.51 1.688-13.1 1.2-19.553-.72-9.526-5.099-17.374-14.23-21.658-18.538-8.697-43.284.556-50.908 19.401a84.895 84.895 0 0 0-6.404 36.425c.634 12.35 8.104 22.514 20.279 24.162 10.335 1.399 21.086.635 31.567-.224 8.822-.723 8.768-1.393 10.498-10.1.099-.495.14-1 .25-1.492.945-4.229-.766-5.197-4.872-4.786a238.86 238.86 0 0 1-24.655 1.495c-11.928-.045-16.72-7.065-13.387-18.68zM508.7 45.253c-18.592.13-31.646 8.307-37.3 25.023a126.82 126.82 0 0 0-5.858 28.451c-1.281 13.491 6.113 24.508 17.595 28.679 18.292 6.644 39.892-1.655 47.404-19.522 3.832-9.116 5.696-19.228 7.297-29.076 3.273-20.14-8.823-33.697-29.138-33.555zm261.857-.005c-18.51.072-31.527 7.927-37.25 24.333a124.747 124.747 0 0 0-6.15 29.394c-1.234 13.366 6.072 24.134 17.338 28.336 18.196 6.788 40.035-1.406 47.55-19.188 3.913-9.258 5.78-19.547 7.43-29.559 3.257-19.767-8.9-33.394-28.918-33.316zm-654.338 15.74c-.931 5.392-1.783 10.175-2.578 14.967-1.978 11.914-4.324 23.784-5.773 35.762-1.292 10.68 3.869 16.685 14.538 17.57a55.539 55.539 0 0 0 14.012-.835c1.688-.295 3.853-2.51 4.34-4.258 2.672-9.585 2.516-9.629-7.346-9.714a12.279 12.279 0 0 0-1.514-.002c-4.268.497-5.311-1.7-4.656-5.446 2.796-15.979 5.565-31.962 8.397-48.251 4.356 0 8.395.244 12.377-.126 1.484-.138 3.732-1.457 4.077-2.678.976-3.45 1.147-7.128 1.725-11.373H138.29l2.685-17.5c-4.802.657-8.553 1.343-12.334 1.647-5.507.442-8.607 2.85-8.635 8.752-.01 2.254-.88 4.504-1.423 7.06-4.604 0-8.985-.306-13.304.08-5.23.466-3.569 5.193-4.405 8.27-.793 2.917.952 3.743 3.562 4.06 3.803.463 7.564 1.275 11.783 2.015zm69.028-14.464c-4.815 0-9.155.124-13.484-.04-3.363-.127-4.654 1.305-5.221 4.593-3.85 22.317-7.96 44.59-11.84 66.902-1.817 10.449-1.67 10.474 8.94 10.474a25.513 25.513 0 0 1 3.026.018c3.82.46 5.722-.808 6.39-4.99 2.381-14.9 5.23-29.725 7.79-44.597 2.245-13.036 5.394-16.009 18.563-17.03 1.34-.103 2.774.203 4.012-.177 1.293-.396 3.196-1.183 3.453-2.162 1.133-4.3 1.767-8.73 2.805-14.318-5.018.52-9.042.489-12.813 1.451-3.96 1.012-7.676 2.975-11.62 4.572zm281.358-1.611c-5.025.522-9.05.492-12.82 1.456-3.958 1.01-7.672 2.974-11.59 4.56l-.255-4.689c-4.253 0-8.263.175-12.25-.05-3.832-.216-5.632.947-6.335 5.107-4.052 23.982-8.407 47.914-12.722 71.85-.667 3.703.41 5.4 4.393 5.07a51.911 51.911 0 0 1 8.573 0c3.838.32 5.718-.85 6.386-5.026 2.38-14.9 5.229-29.725 7.79-44.597 2.26-13.132 5.976-16.447 19.577-17.072 1.176-.054 2.45.222 3.506-.15 1.134-.4 2.738-1.214 2.967-2.139 1.074-4.317 1.743-8.735 2.78-14.32zm195.025 7.15c1.793-4.984.073-6.07-3.425-5.861a94.423 94.423 0 0 1-9.586.012c-3.143-.132-4.43 1.282-4.929 4.337-1.704 10.43-3.641 20.82-5.49 31.227-2.465 13.873-4.907 27.75-7.41 41.616-.62 3.442.416 5.08 4.165 4.822a67.944 67.944 0 0 1 9.584.003c3.62.263 4.974-1.272 5.554-4.78 2.49-15.053 5.285-30.056 7.897-45.09 2.23-12.83 5.944-16.118 19.291-16.816a15.074 15.074 0 0 0 3.512-.14c1.171-.359 2.928-1.05 3.14-1.914 1.09-4.446 1.767-8.993 2.63-13.732-9.376-1.469-16.825 1.011-24.933 6.317zm47.568-5.82a48.818 48.818 0 0 1-5.038-.03c-3.623-.378-5.128 1.436-5.7 4.774-4.135 24.111-8.275 48.222-12.582 72.303-.641 3.58.146 5.103 3.882 4.908a41.645 41.645 0 0 1 8.056.04c5.32.767 6.878-1.842 7.671-6.629 3.643-21.981 7.577-43.915 11.457-65.856 1.982-11.205 2.265-9.336-7.746-9.51zm1.617-10.995c10.352 0 10.476.018 11.646-7.903 1.611-10.905 4.197-10.799-9.086-10.727-9.3.05-9.3.011-10.837 8.856-1.697 9.774-1.697 9.774 8.277 9.774z"/><path class="cls-2" d="M347.76 88.217c-1.962 11.074-4.193 22.407-5.89 33.82-.715 4.812-2.652 6.75-7.518 6.201a69.551 69.551 0 0 0-9.58-.05c-2.99.08-4.24-.8-3.633-4.172 4.781-26.572 9.409-53.172 14.095-79.76 1.047-5.944 2.256-11.862 3.16-17.827.505-3.327 2.063-5.35 5.46-5.433 14.053-.344 28.2-1.723 42.137-.574 14.738 1.215 23.041 12.043 23.352 26.83.441 21.024-12.878 36.488-34.59 39.373-8.61 1.144-17.383 1.064-26.992 1.592zm2.909-17.61c7.264 0 13.858.68 20.256-.148 11.515-1.491 18.35-10.044 18.342-21.608-.005-7.53-3.43-11.909-10.896-12.47-6.993-.524-14.056-.112-21.564-.112l-6.138 34.339zM565.308 129.168c-1.387 7.69-2.958 15.731-4.23 23.82-.464 2.943-1.895 4.088-4.665 4.07-3.193-.021-6.405-.233-9.576.033-4.401.368-5.644-1.433-4.904-5.6 5.748-32.339 11.372-64.7 17.21-97.022.331-1.829 1.913-4.485 3.41-4.885 13.346-3.556 26.946-6.12 40.724-3.27 11.815 2.445 18.762 11.062 19.386 23.143a92.37 92.37 0 0 1-5.911 36.496c-5.494 15.098-17.139 22.208-32.758 23.156-6.006.365-12.054.06-18.686.06zm2.837-16.38c5.337.28 10.347.896 15.33.717 6.808-.245 12.634-3.787 14.252-10.146a255.49 255.49 0 0 0 5.674-33.379c.571-4.893-3.008-8.247-8.02-8.574-5.955-.387-11.953-.09-18.235-.09l-9.001 51.472z"/><path class="cls-3" d="M77.11 123.682c-.86 2.935-3.157 4.374-6.813 4.422-11.713.155-23.54 1.375-35.11.157-13.526-1.424-20.747-12.331-18.558-25.676q4.6-28.046 9.772-55.998c3.41-18.244 13.905-27.008 32.54-27.132 9.73-.064 19.48.436 29.192 1.11 6.353.442 6.707 1.292 5.714 7.55-1.337 8.424-1.337 8.422-10.048 8.425-8.41.002-16.82-.08-25.228.042-6.591.095-10.116 2.607-11.693 8.928-1.536 6.15-2.427 12.463-3.713 19.297h42.297c-.958 5.184-1.49 9.776-2.83 14.12-.338 1.098-3.242 1.96-4.98 1.984-12.261.169-24.526.09-37.47.09-1.197 8.103-2.732 15.982-3.398 23.934-.407 4.86 2.628 7.22 8.22 7.306 9.417.145 18.84.182 28.255.003 3.25-.061 5.365.417 5.23 3.032zM228.738 94.338c-3.332 11.614 1.459 18.634 13.387 18.68a238.86 238.86 0 0 0 24.655-1.495c4.106-.412 5.817.557 4.872 4.786-.11.49-.151.997-.25 1.491-1.73 8.708-1.676 9.377-10.498 10.1-10.481.86-21.232 1.623-31.567.224-12.175-1.648-19.645-11.812-20.279-24.161a84.895 84.895 0 0 1 6.404-36.425c7.624-18.845 32.37-28.098 50.908-19.401 9.131 4.284 13.51 12.131 14.23 21.658.488 6.453-.607 13.043-1.2 19.553-.301 3.311-2.143 4.77-5.775 4.734-14.806-.143-29.615.01-44.423.063a1.378 1.378 0 0 0-.464.193z"/><path class="cls-2" d="M508.7 45.253c20.315-.142 32.411 13.416 29.138 33.555-1.6 9.848-3.465 19.96-7.297 29.075-7.512 17.867-29.112 26.167-47.404 19.523-11.482-4.171-18.876-15.188-17.595-28.679a126.82 126.82 0 0 1 5.858-28.45c5.654-16.717 18.708-24.894 37.3-25.024zm9.462 37.552a25.472 25.472 0 0 0 .245-10.47c-1.753-8.894-7.693-12.025-16.031-10.163-8.136 1.816-12.022 7.678-13.937 14.949a148.015 148.015 0 0 0-3.52 19.26c-1.58 12.593 6.44 19.257 18.465 15.483a14.688 14.688 0 0 0 10.266-10.26c1.872-6.829 3.386-13.756 4.512-18.8zM770.557 45.248c20.018-.078 32.175 13.549 28.917 33.316-1.65 10.012-3.516 20.301-7.429 29.56-7.515 17.781-29.354 25.975-47.55 19.187-11.266-4.202-18.572-14.97-17.339-28.336a124.747 124.747 0 0 1 6.151-29.395c5.723-16.405 18.74-24.26 37.25-24.332zm9.308 37.08a26.867 26.867 0 0 0 .217-10.78c-1.142-5.935-3.932-8.414-8.755-9.494-8.078-1.808-16.555 2.022-19.377 10.553a116.863 116.863 0 0 0-5.496 26.908c-.744 9.053 5.173 14.012 13.7 13.257 7.087-.627 12.836-3.83 14.928-10.811 2.105-7.024 3.608-14.228 4.784-19.633z"/><path class="cls-3" d="M116.219 60.988c-.93 5.392-1.783 10.175-2.578 14.967-1.978 11.914-4.324 23.784-5.773 35.762-1.292 10.68 3.869 16.685 14.538 17.57a55.539 55.539 0 0 0 14.012-.835c1.688-.295 3.853-2.511 4.34-4.258 2.672-9.585 2.516-9.629-7.346-9.714a12.279 12.279 0 0 0-1.513-.002c-4.27.497-5.312-1.7-4.657-5.446 2.796-15.979 5.565-31.962 8.397-48.251 4.356 0 8.395.244 12.377-.126 1.484-.138 3.732-1.457 4.077-2.678.976-3.45 1.147-7.128 1.725-11.373H138.29l2.685-17.5c-4.802.657-8.553 1.343-12.334 1.647-4.818.387-7.794 2.28-8.482 6.7l-1.576 9.112c-4.604 0-8.985-.306-13.304.08-5.23.466-3.569 5.193-4.405 8.27-.793 2.917.952 3.743 3.562 4.06zM185.247 46.524v4.696c3.945-1.597 7.662-3.56 11.621-4.572 3.77-.962 7.795-.931 12.813-1.451-1.038 5.588-1.672 10.019-2.805 14.318-.257.98-2.16 1.766-3.453 2.162-1.238.38-2.672.074-4.012.178-13.169 1.02-16.318 3.993-18.562 17.029-2.56 14.872-5.41 29.697-7.79 44.597-.669 4.182-2.571 5.45-6.391 4.99a25.513 25.513 0 0 0-3.026-.018c-10.61 0-10.757-.025-8.94-10.474 3.88-22.312 7.99-44.584 11.84-66.902.567-3.288 1.858-4.72 5.22-4.593 4.33.164 8.67.04 13.485.04z"/><path class="cls-2" d="M466.605 44.913c-1.037 5.585-1.706 10.003-2.78 14.32-.23.925-1.833 1.74-2.967 2.14-1.055.371-2.33.095-3.506.15-13.6.624-17.317 3.94-19.578 17.071-2.56 14.872-5.408 29.697-7.79 44.597-.667 4.175-2.547 5.347-6.385 5.027a51.911 51.911 0 0 0-8.573-.001c-3.982.33-5.06-1.367-4.393-5.07 4.315-23.936 8.67-47.868 12.722-71.85.703-4.16 2.503-5.323 6.335-5.107 3.987.225 7.997.05 12.25.05l.255 4.69c3.918-1.587 7.632-3.55 11.59-4.561 3.77-.963 7.795-.934 12.82-1.456zM661.63 52.064c8.108-5.306 15.557-7.786 24.933-6.317-.863 4.739-1.54 9.286-2.63 13.732-.212.863-1.969 1.555-3.14 1.914a15.074 15.074 0 0 1-3.511.14c-13.348.698-17.062 3.987-19.291 16.816-2.613 15.034-5.408 30.037-7.897 45.09-.58 3.507-1.936 5.043-5.555 4.78a67.944 67.944 0 0 0-9.584-.003c-3.749.259-4.786-1.38-4.164-4.822 2.503-13.866 4.945-27.743 7.409-41.616 1.849-10.406 3.786-20.798 5.49-31.227.5-3.055 1.786-4.47 4.929-4.337a94.423 94.423 0 0 0 9.587-.012c3.497-.209 5.217.877 3.424 5.862zM709.198 46.241c10.01.176 9.728-1.693 7.746 9.512-3.88 21.941-7.814 43.875-11.457 65.856-.793 4.787-2.352 7.396-7.67 6.628a41.645 41.645 0 0 0-8.057-.04c-3.736.196-4.523-1.326-3.882-4.907 4.307-24.08 8.447-48.192 12.581-72.303.573-3.338 2.078-5.152 5.7-4.774a48.494 48.494 0 0 0 5.04.028z"/><path class="cls-1" d="M710.815 35.248c-9.974 0-9.974 0-8.277-9.774 1.536-8.845 1.536-8.805 10.837-8.856 13.283-.072 10.697-.178 9.086 10.727-1.17 7.921-1.294 7.903-11.646 7.903z"/><path class="cls-3" d="M350.669 70.608l6.138-34.339c7.508 0 14.571-.412 21.564.113 7.466.56 10.891 4.939 10.896 12.469.008 11.564-6.827 20.117-18.342 21.608-6.398.829-12.992.149-20.256.149zM568.145 112.788l9.001-51.473c6.282 0 12.28-.296 18.234.091 5.013.327 8.592 3.681 8.021 8.574a255.49 255.49 0 0 1-5.674 33.38c-1.618 6.359-7.444 9.9-14.253 10.145-4.982.18-9.992-.437-15.33-.717z"/><path class="cls-1" d="M261.537 77.574h-30.325c.75-6.07 3.195-10.966 9.193-13.843 5.555-2.664 11.594-3.437 17.106-.072 5.58 3.407 4.522 8.615 4.026 13.915z"/><path class="cls-3" d="M518.407 72.335a25.472 25.472 0 0 1-.245 10.47c-1.126 5.043-2.64 11.97-4.512 18.799a14.688 14.688 0 0 1-10.266 10.26c-12.025 3.774-20.044-2.89-18.464-15.483a148.015 148.015 0 0 1 3.519-19.26c1.915-7.271 5.801-13.133 13.937-14.95 8.338-1.86 14.278 1.27 16.03 10.164zM780.076 71.515a26.946 26.946 0 0 1-.218 10.847c-1.174 5.402-2.676 12.59-4.776 19.599-2.092 6.98-7.841 10.184-14.928 10.811-8.527.755-14.444-4.204-13.7-13.257a116.863 116.863 0 0 1 5.496-26.908c2.822-8.53 11.3-12.36 19.377-10.553 4.813 1.078 7.603 3.55 8.749 9.461z"/></svg>