<?xml version="1.0" encoding="utf-8"?>
<!-- Generator: Adobe Illustrator 22.0.0, SVG Export Plug-In . SVG Version: 6.00 Build 0)  -->
<svg version="1.1" id="lbc0_xA0_Image_1_" xmlns="http://www.w3.org/2000/svg" xmlns:xlink="http://www.w3.org/1999/xlink" x="0px"
	 y="0px" viewBox="0 0 402 425" style="enable-background:new 0 0 402 425;" xml:space="preserve">
<style type="text/css">
	.st0{fill:#F46C2B;}
	.st1{fill:#ED753C;}
	.st2{fill:#E6814F;}
	.st3{fill:#F56B1F;}
	.st4{fill:#F36C2D;}
	.st5{fill:#ED7A43;}
	.st6{fill:#F17033;}
	.st7{fill:#F07034;}
	.st8{fill:#F07134;}
</style>
<g>
	<path class="st0" d="M202.4,402C98.2,402,13.9,317.4,14,213.1C14.1,109.2,98.6,25,202.6,25c104.1,0,188.5,84.6,188.4,188.9
		C390.9,317.8,306.4,402,202.4,402z M93.8,268.3c-1.3-0.7-2.6-1.5-3.9-2.2c-0.5,0-1,0-1.5-0.1c-16.8-3.3-25.5,4.2-24.7,21.3
		c0.1,1.3-1.4,3.3-2.6,3.9c-4.3,2.3-8.8-0.7-8.8-5.7c-0.1-10.8-0.1-21.6,0-32.5c0-3.8-0.8-6.8-5.2-6.9c-4.2,0-5.1,2.9-5.1,6.5
		c0,11.8-0.2,23.6,0,35.5c0.1,8.2,11.2,15.1,19.1,12.5c3.5-1.1,7.9-2.5,11-1.4c8,2.9,15.1,1.9,22-2.3c0.9,1.1,1.7,2.8,2.8,3
		c3.8,0.9,6.5-0.6,5.1-4.7c-0.6-1.7,3.5-5.3-1.8-5.1c0.6-4.9,1.3-9.8,1.6-14.7C101.9,271.5,98.1,268.3,93.8,268.3l0.3-0.1
		L93.8,268.3z M256.5,269.4c-7.4-5.8-18.3-5.9-24.9-0.4c-6.7,5.7-8.4,15.2-4,23c4.1,7.3,14.3,10.8,23.2,7.7c3.9-1.4,7.4-3.5,8.7-7.9
		c-6.5-2.9-6.8-2.7-13.1-0.4c-1.8,0.6-4.3,0.3-6.1-0.6c-3.9-1.9-5.3-6.8-3.7-11.3c1.6-4.5,4.7-6.2,9.4-5.1c1.6,6.4,6.7,2.8,10.3,3.6
		c2.3,0.5,3.9-0.4,3.7-3.1C259.8,272.3,261,269,256.5,269.4z M155.1,298.8c11.7,5.3,23.9-0.4,26.5-12.2c1.8-8.1-2.4-16.7-9.7-19.9
		c-8.5-3.8-18.4-1.4-23.8,5.7c-4.6,6-4.2,15.7,0.9,21.6C151.1,295.6,153.1,297.2,155.1,298.8z M121.5,180.2
		c-1,7.7,2.9,12.1,9.7,14.6c0.3,0.1,0.5,0.4,0.8,0.6c20.8,11.8,41.5,23.7,62.4,35.3c2.3,1.3,6.5,1.4,8.7,0.1
		c22.6-12.6,45-25.6,67.5-38.3c3.8-2.1,5.3-4.8,5.2-9.2c-0.1-25.1-0.3-50.3,0.2-75.4c0.1-6.9-2.4-10.5-8-13.7
		c-21.3-11.9-42.5-23.9-63.5-36.2c-4.3-2.5-7.9-2.2-12.1,0.2c-19.5,11.3-39.2,22.4-58.7,33.7c-14.4,8.3-11.8,4.2-11.9,20.6
		c-0.2,21.8-0.2,43.6-0.3,65.4c-0.2-1.8-0.5-3.6-0.5-5.4c0-18.3,0-36.7,0-55c0-4.5,0-8.9,0-13.4c-0.2,0-0.5,0-0.7,0
		c0,26.9,0,53.8,0,80.7c0.1,0,0.3,0,0.4,0C120.9,183.3,121.2,181.7,121.5,180.2z M116.6,297.9c8.6,4.4,15.7,3.3,21.1-2.9
		c5.1-6,5.8-16.9,0.8-23.3c-2-2.6-5.2-5.6-8.1-5.9c-4.7-0.6-9.6,0.9-14.8,1.6c0-4,0-9.1,0-14.3c0-3.9-1.2-7.1-5.8-7
		c-4.3,0.1-4.9,3.3-4.9,6.7c0,7.7,0,15.3,0,23c0,8.1,0,16.2,0,24.6C109.4,300.3,113.6,302.7,116.6,297.9z M355.9,299.8
		c0-8.3,0.3-16.6-0.1-24.9c-0.3-6.9-4.8-10.8-11.7-9.9c-4.1,0.5-8,2.5-11,3.5c-2.7-0.9-5.1-2.6-7.3-2.4c-3.6,0.3-3.6,3.7-3.5,6.6
		c0,6.3,0,12.7,0.1,19c0,9.7,0,9.7,9.5,8.7c0.3,0,0.5-0.4,1.1-0.7c0-5.6-0.1-11.4,0-17.2c0.1-4.1,3.7-8.4,7.2-8.2
		c5,0.2,4.9,4.1,5,7.6c0.1,3.3,0,6.7,0,10c0.1,9.5,0.1,9.5,9.7,8.7C355,300.5,355.2,300.3,355.9,299.8z M299.5,282.7
		c0-10.3-8-17.7-18.8-17.7c-10.6,0.1-18.4,7.5-18.4,17.5c0,10.5,7.6,18.2,18.3,18.2C291.6,300.8,299.5,293.3,299.5,282.7z
		 M187.1,300.3c1.5,0.2,2.6,0.3,3.8,0.4c6.7,0.2,6.7,0.1,6.7-6.7c0-4,0-8,0.1-12c0.2-3.9,3.8-7.9,7.1-7.7c4.6,0.2,4.8,3.8,5,7.2
		c0.1,2,0,4,0,6c0,4.3,0,8.5,0,13c3.7,0,6.8,0,10.1,0c0-9.3,0.3-18.2-0.1-27.2c-0.2-5.1-4.3-8.7-9.5-8.2c-4.6,0.4-9,2.2-13.1,3.2
		c-2.2-0.8-4.5-2.1-6.8-2.2c-1.1,0-3.1,2.3-3.2,3.7C187,279.9,187.1,290,187.1,300.3z M315.6,283.1c0-4.2,0.2-8.3,0-12.5
		c-0.2-3.3-2.1-5.8-5.4-4.9c-2,0.6-4.7,3.1-4.8,5c-0.5,8.1-0.3,16.3-0.1,24.4c0.1,3.2,1.8,5.4,5.3,5.4c3.4-0.1,5.1-2.1,5.2-5.5
		C315.6,291.1,315.5,287.1,315.6,283.1z M303.8,252.6c-0.2,4.4,2.4,6.4,6.2,7c3.5,0.6,7.1-3.1,7.1-6.8c0-4-2.9-6.9-6.9-6.9
		C306.3,246,303.8,248.6,303.8,252.6z M40.2,288.7c0.2,0,0.3,0,0.5,0c0-9.9,0-19.8,0-29.7c-0.2,0-0.3,0-0.5,0
		C40.2,268.9,40.2,278.8,40.2,288.7z"/>
	<path class="st1" d="M95,290c-3.1-0.3-5.7-0.1-8.7,1.8c-5.3,3.4-10.4,0.7-11.2-5.7c8.1,0,16.1,0,24.3,0c2.1-7.6-1.5-12.8-5.6-17.9
		c4.3,0,8.1,3.2,7.9,7c-0.3,4.9-1.1,9.8-1.6,14.7c-0.8,2.3-1.6,4.6-2.4,6.9c-0.6-0.3-1.2-0.7-1.8-1C97.2,293.6,97.7,291.6,95,290
		c0.9-0.3,1.8-0.5,2.7-0.8c-0.3-0.4-0.5-0.8-0.8-1.2C96.3,288.7,95.6,289.3,95,290z"/>
	<path class="st2" d="M246,274.3c5.5,2.9,5.8,2.9,13.2-1c-0.9-1.3-1.8-2.7-2.7-4c4.5-0.3,3.3,3,3.5,5.4c0.2,2.8-1.5,3.6-3.7,3.1
		C252.7,277.1,247.6,280.7,246,274.3z"/>
	<path class="st3" d="M95.8,295.8c0.6,0.3,1.2,0.7,1.8,1c0.8-2.3,1.6-4.6,2.4-6.9c5.3-0.1,1.2,3.5,1.8,5.1c1.5,4.2-1.3,5.6-5.1,4.7
		c-1.1-0.3-1.9-2-2.8-3C94.6,296.5,95.2,296.2,95.8,295.8z"/>
	<path class="st4" d="M132.8,110.6c9.6,5.4,18.7,10.5,27.7,15.7c10.1,5.8,20.1,11.6,30,17.7c1.5,0.9,3.3,3.1,3.3,4.8
		c0.2,22.5,0.1,44.9,0.1,67.4c0,0.4-0.2,0.9-0.5,1.9c-9.8-5.6-19.4-11.1-28.9-16.6c-9.5-5.5-19-10.8-28.4-16.6
		c-1.8-1.1-3.7-3.6-3.7-5.5c-0.3-22.1-0.2-44.3-0.1-66.4C132.2,112.4,132.4,112,132.8,110.6z"/>
	<path class="st4" d="M265.5,111.1c0,10.3,0,19.8,0,29.3c0,13.3,0,26.7-0.3,40c0,1.8-1.3,4.3-2.7,5.2
		c-18.6,10.9-37.4,21.5-56.2,32.1c-0.4,0.2-0.9,0.2-2,0.4c-0.1-1.7-0.3-3.2-0.3-4.8c0-21,0-42-0.1-63c0-3.5,1.1-5.3,4.2-7
		c18-10,35.8-20.4,53.7-30.6C262.7,112.3,263.7,111.9,265.5,111.1z"/>
	<path class="st4" d="M259.9,102.6c-15.5,8.8-30.2,17.1-44.9,25.4c-3.2,1.8-6.7,3.2-9.5,5.5c-4.7,3.7-8.6,2.7-13.4-0.2
		c-16.9-10.2-34.1-19.9-51.2-29.8c-0.7-0.4-1.2-1-2.5-2c5.3-3,10.2-5.8,15-8.5c14.2-8,28.3-16.2,42.6-24c1.8-1,5.1-1.2,6.8-0.2
		c18.2,10.3,36.3,20.8,54.4,31.3C257.9,100.6,258.5,101.4,259.9,102.6z"/>
	<path class="st5" d="M88.4,279.6c-4.6,0-9.1,0-14,0c0.4-4.8,3-7.1,7.3-7.4C85.6,272,88.2,275,88.4,279.6z"/>
	<path class="st6" d="M115.7,283.4c0-5.9,2.9-9.5,7.7-9.5c4.3,0.1,7.5,3.9,7.5,8.9c0,5.1-3.4,9-8,9.1
		C118.2,292,115.8,289.2,115.7,283.4z"/>
	<path class="st7" d="M288.3,282.7c0,5.5-3,9.1-7.6,9.2c-4.2,0-7.4-3.8-7.5-8.9c0-5.4,3.1-9,7.8-9
		C285.7,274,288.3,277.1,288.3,282.7z"/>
	<path class="st8" d="M155.8,282.8c0-5.6,2.9-8.9,7.7-8.8c4.4,0,7.5,3.6,7.5,8.6c0,5.3-3.2,9.2-7.6,9.3
		C159,292,155.9,288.2,155.8,282.8z"/>
	<path class="st0" d="M95,290c0.6-0.7,1.3-1.4,1.9-2c0.3,0.4,0.5,0.8,0.8,1.2C96.8,289.5,95.9,289.7,95,290C95,290,95,290,95,290z"
		/>
</g>
</svg>
