<svg xmlns="http://www.w3.org/2000/svg" viewBox="0 0 211.5 40" role="img" class="sc-1ypujib-0 dbIiFw"><path d="M14 8.6v24.5c0 2.3.7 3.4 3.6 3.4h3.5c4 0 5.9-1.6 7.3-4.5l1.3-2.9 2.1.6-1.6 9.4H1.5V37c5.1-1.1 5.3-1.3 5.3-3.3V8.5c0-2.1-.3-2.2-5.3-3.2V3.2h18v2.1c-5.2 1-5.5 1.1-5.5 3.3zm40.4 10.8c0 3.4-1.9 7.1-14.4 7.7.3 5.1 3 8.5 7.3 8.5 2.4 0 4.6-1 6.6-2.9l1.2 1.4c-2.3 3.4-6 5.7-10.3 5.7-7 0-12-5-12-12.8 0-7.6 6.1-13.6 13.3-13.6 6-.2 8.3 3.4 8.3 6zm-8.6-4c-3.9 0-5.6 4.2-5.8 9.6 8.6-1.3 8.9-4.5 8.9-6.4 0-2.2-1.7-3.2-3.1-3.2zm19.4 24.3c-6.2 0-8.6-2.5-8.6-5.1 0-2 2-3.7 4.5-3.3l.7.8c-1.6 2.8-.4 5.3 3.6 5.3 2.6 0 4.4-1.4 4.4-3.5 0-2.5-2.1-3.5-5.3-4.8-4.5-1.9-7.3-3.9-7.3-8.2 0-4.1 3.6-7.7 9.3-7.7 5.9 0 8.6 2.9 8.6 5.2 0 2-1.8 3.8-4.7 3.2l-.6-.9c1.9-2.5.9-5.4-3.2-5.4-2.4 0-4 1.5-4 3.5 0 2.4 2.6 3.5 5.4 4.5 4.5 1.6 8.2 3.6 8.2 8.3.1 4.9-3.2 8.1-11 8.1zM81.7 3.2h28.8l.3 9.5h-2l-1-3c-1-3-3.1-3.8-6.1-3.8h-7.5v13.4h7.4c1.6 0 1.7-.3 2.8-4.9h2.1v12.9h-2.1c-1.1-4.4-1.2-5.1-2.8-5.1h-7.4v10.9c0 2.3.7 3.4 3.6 3.4h3.5c4 0 5.9-1.6 7.3-4.5l1.3-2.9 2.1.6-1.7 9.4H81.7v-2c5.1-1.1 5.3-1.3 5.3-3.3V8.5c0-2.1-.3-2.2-5.3-3.2V3.2zm52.7 29.5l1.2 1.4c-2.3 3.4-6 5.6-10.3 5.6-7 0-12-5-12-12.8 0-7.6 5.6-13.6 12.9-13.6 5.7 0 8.4 3.2 8.4 5.6 0 2.1-1.3 4.1-5 3.5l-.6-1c1-2.4 1.4-6.1-2.7-6.1s-5.8 4.7-5.8 10.5c0 5.7 2.7 9.7 7.3 9.7 2.3 0 4.5-.9 6.6-2.8zm18.8 3.5V22.3c0-3-1.1-4.2-3.2-4.2-3.3 0-6 5.1-6 12.7V39h-6.8V5.5c0-2-.2-2.1-3.4-3.2v-2h10.5c-.3 2.2-.3 19-.3 20.1h.1c1.8-4.2 4.8-7.2 9.2-7.2 3.8 0 6.6 2.7 6.6 7.8v12.6c0 2.4.4 2.6 3.9 3.4v2.1c-3.1.3-5.5.5-7 .5-2.3.1-3.6-1-3.6-3.4zm23.1 1.3c4.5 0 5.7-5.3 5.7-10.7 0-5.9-.8-11.4-5.7-11.4-4.5 0-5.7 5.3-5.7 10.7-.1 5.8.8 11.4 5.7 11.4zm-.6 2.2c-7.3 0-12.4-4.9-12.4-12.4 0-8.5 5.3-14.1 13.5-14.1 7.3 0 12.4 4.8 12.4 12.4 0 8.5-5.2 14.1-13.5 14.1zm23.3 0c-6.2 0-8.6-2.5-8.6-5.1 0-2 2-3.7 4.5-3.3l.7.8c-1.6 2.8-.4 5.3 3.6 5.3 2.6 0 4.4-1.4 4.4-3.5 0-2.5-2.1-3.5-5.3-4.8-4.5-1.9-7.3-3.9-7.3-8.2 0-4.1 3.6-7.7 9.2-7.7 5.9 0 8.6 2.9 8.6 5.2 0 2-1.8 3.8-4.7 3.2l-.6-.9c1.9-2.5 1-5.4-3.2-5.4-2.4 0-4 1.5-4 3.5 0 2.4 2.5 3.5 5.4 4.5 4.5 1.6 8.2 3.6 8.2 8.3.3 4.9-3.1 8.1-10.9 8.1z"></path></svg>
