<?xml version="1.0" encoding="utf-8"?>
<!-- Generator: Adobe Illustrator 22.0.0, SVG Export Plug-In . SVG Version: 6.00 Build 0)  -->
<svg version="1.1" id="li0_xA0_Image_1_" xmlns="http://www.w3.org/2000/svg" xmlns:xlink="http://www.w3.org/1999/xlink" x="0px"
	 y="0px" viewBox="0 0 200 200" style="enable-background:new 0 0 200 200;" xml:space="preserve">
<style type="text/css">
	.st0{fill:#131514;}
	.st1{fill:#141515;}
	.st2{fill:#161717;}
	.st3{fill:#131414;}
	.st4{fill:#089EDD;}
	.st5{fill:#099EDD;}
	.st6{fill:#181919;}
	.st7{fill:#0B9EDC;}
	.st8{fill:#191B1B;}
	.st9{fill:#121312;}
	.st10{fill:#009ADC;}
	.st11{fill:#0C9DDB;}
	.st12{fill:#1A96CD;}
	.st13{fill:#040505;}
	.st14{fill:#0095D6;}
	.st15{fill:#010101;}
</style>
<g>
	<path class="st0" d="M108.1,119c0-8.7,0-17.4,0-26.1c0.3-0.3,0.5-0.5,0.8-0.8c4.4-1.1,7.1,0,8.4,4.8c1,3.6,3.1,6.8,5,10.6
		c1.8-3.9,3.6-7.1,4.7-10.5c1.4-4.7,4.1-6.3,9-4.8c0,9,0,18,0,27.4c-2,0-4.1,0-6.5,0c0-3.8,0-7.7,0-11.6c-0.3-0.1-0.6-0.2-0.9-0.3
		c-2,3.8-4,7.5-6.3,11.9c-2.2-4-4.1-7.5-6-11c-0.4,0.1-0.8,0.1-1.2,0.2c0,1.7-0.2,3.4,0,5.1c0.7,4.8-1.2,6.9-6.1,5.8
		C108.7,119.6,108.4,119.3,108.1,119z"/>
	<path class="st1" d="M70.2,49.9c8.9,0,14.3,5.9,14.4,15.9c0.1,10.2-5.4,16.1-14.6,16.4c-7.8,0.2-14.4-5.3-14.3-16.4
		C55.8,56,62.4,49.3,70.2,49.9z M69.3,75.6c6.3-3,8.7-9.6,5.2-15.2c-0.9-1.5-3.7-3.2-5-2.8c-1.9,0.5-4.7,2.8-4.8,4.5
		C64.6,66.9,63.8,72.4,69.3,75.6z"/>
	<path class="st1" d="M116.2,58.5c-2.2,0.9-4.3,1.7-7,2.8c-0.7-0.9-1.4-2-2.4-2.9c-0.7-0.6-2-1.5-2.5-1.2c-2,1-4.6,2-5.7,3.8
		c-2.1,3.6-0.9,11.7,1.8,12.9c2.3,0.9,5.2,0.3,7.8,0.1c0.5,0,0.9-1.6,1.4-2.7c-2-0.1-3.6-0.2-5.5-0.3c-0.1-1.5-0.2-2.9-0.3-4.7
		c4.5,0,8.7,0,13.1,0c0,5.9,0.3,11.9-6.3,14.6c-5.6,2.3-11.5,2.5-16.5-1.6c-5.7-4.8-6.5-11.4-4.7-18.2c2.3-8.8,10.3-13.3,18.9-10.8
		C112.4,51.3,115.5,53.8,116.2,58.5z"/>
	<path class="st2" d="M166.1,61.9c-4-0.2-7.8,1.5-10.5-3.3c-1.8-3.1-7-2.1-8,1.6c-1,3.6-0.9,7.9,0,11.6c0.8,3.3,6,4.6,7.6,2
		c2.8-4.5,6.6-3.4,10.4-3.3c-0.5,7.2-5.5,11.5-13.3,11.6c-8.4,0.1-13.7-4.8-14.3-13.2c-0.8-10.7,3.3-17.6,11.2-18.9
		C157.9,48.6,164.1,52.7,166.1,61.9z"/>
	<path class="st3" d="M75,92.1c1.8,0,3.6,0,5.5,0c1.2,2.5,2.3,5.1,3.5,7.6c1.1,2.4,2.1,4.8,3.6,8.1c1.8-4,3.4-7.2,4.6-10.6
		c1.6-4.7,4.5-6.5,9.5-4.8c0,9,0,18.1,0,27.4c-2.2,0-4.3,0-6.9,0c0-3.9,0-7.8,0-11.6c-0.3-0.1-0.6-0.1-0.9-0.2
		c-2.1,3.8-4.1,7.7-6.4,12c-2.4-4.6-4.5-8.7-6.6-12.8c-2.4,0.2-2.6,1.2-0.9,4.9c0,2.3,0,4.7,0,7c-0.3,0.3-0.7,0.6-1,0.9
		c-1.3,0-2.7,0-4,0C75,110.6,75,101.4,75,92.1z"/>
	<path class="st4" d="M136.2,130.1c3.9-1.7,6.7-1.3,8.2,3.3c1.3,3.7,3.2,7.1,5.3,11.7c2.6-5.2,4.7-9.7,6.9-14.1
		c5.9-1.7,6.3-1.4,6.3,4.5c0,6,0.1,11.9-0.1,17.9c0,1.2-1.4,2.4-2.2,3.6c-0.9-1.2-2.4-2.3-2.6-3.6c-0.4-2.9-0.1-5.9-0.1-8.9
		c-0.5,0-1-0.1-1.5-0.1c-0.4,0.8-0.9,1.6-1.3,2.3c-1.5,3.3-3.1,6.5-5.1,10.8c-2.4-4.3-4.3-7.8-6.9-12.5c0,5,0,8.5,0,12.9
		c-2.6-0.3-4.7-0.6-6.9-0.8c0.2-1.9,0.7-3.9,0.7-5.8C136.8,144.2,136.5,137.1,136.2,130.1z"/>
	<path class="st5" d="M105.3,143.4c0-8.4,4.8-14,12.2-14.1c8-0.2,13.2,5.4,13.2,14.2c0,8.3-5.3,14.2-12.8,14.2
		C110.3,157.6,105.3,152,105.3,143.4z M113,142.1c0.1,4.6-0.1,9,5.1,8.9c5.1-0.1,5-4.5,4.9-8.2c0-1.4-0.2-3.2-1-4.2
		c-1-1.3-2.7-2.8-4.1-2.8c-1.4,0-3.1,1.5-4.1,2.8C113,139.8,113.1,141.5,113,142.1z"/>
	<path class="st1" d="M141.7,106c0-9.3,4.5-14.1,12.9-14c7.6,0.1,12.5,5.7,12.4,14.3c-0.1,8.3-5.3,13.8-12.9,13.8
		C146,120,141.7,115.1,141.7,106z M159.5,106.1c-0.5-1.9-0.4-4.1-1.5-5.2c-1.2-1.4-4.8-2.9-5-2.6c-1.7,2.2-3.4,4.7-3.9,7.3
		c-0.7,3.3,0.2,7,4,8c1.3,0.4,3.7-1.1,4.8-2.4C159,110,159,107.9,159.5,106.1z"/>
	<path class="st6" d="M30.2,50c3.1,0,5.6,0,8.7,0c0,8.1,0,16.1,0,24.5c5,0,9.4,0,14,0c0,2.6,0,4.9,0,7.4c-7.6,0-15,0-22.6,0
		c0-1.4,0-2.5,0-3.6C30.2,69,30.2,59.7,30.2,50z"/>
	<path class="st7" d="M95.3,147.8c1.9,0.9,3.6,1.8,5.3,2.7c-2.9,6-7.4,8.1-13.7,6.7c-6.1-1.4-9.7-6.6-9.6-13.9
		c0.1-7.4,3.7-12.3,9.9-13.7c6.5-1.4,10.6,0.7,13.7,7.3c-2,0.8-3.9,1.7-6,2.5c-2.1-2.6-4.2-5.9-7.9-2.7c-2.7,2.3-2.8,10.5-0.1,13
		C90.4,153.1,92.8,150.3,95.3,147.8z"/>
	<path class="st8" d="M131.8,51c0,10.3,0,20.5,0,31c-2.9,0-5.5,0-7.8,0c0-10.6,0-21.2,0-31.7c0.3,0,0.6-0.1,0.9-0.1c2,0,4,0,6.1,0
		C131.3,50.4,131.6,50.7,131.8,51z"/>
	<path class="st9" d="M66,119.8c-2.1,0-4.3,0-6.7,0c0-9.1,0-18.3,0-27.7c2.5,0,4.9,0,7.5,0c0,9.1,0,18,0,26.9
		C66.6,119.3,66.3,119.6,66,119.8z"/>
	<path class="st10" d="M29.3,102.1c6.5,0,12.9,0,19.6,0c0,2.6,0,5,0,7.7c-6.4,0-12.8,0-19.6,0C29.3,107.3,29.3,104.8,29.3,102.1z"/>
	<path class="st11" d="M68.8,159.4c-2.2-2.8-4.5-4.5-4.4-6.1c0.1-1.5,2.5-4.1,4-4.1c1.5,0,4.1,2.3,4.3,3.8
		C72.9,154.6,70.8,156.5,68.8,159.4z"/>
	<path class="st12" d="M155.1,146.6c0.4-0.8,0.9-1.6,1.3-2.3c0.5,0,1,0.1,1.5,0.1c0,3-0.3,6,0.1,8.9c0.2,1.3,1.7,2.4,2.6,3.6
		c0.8-1.2,2.1-2.4,2.2-3.6c0.2-5.9,0.1-11.9,0.1-17.9c0-6-0.4-6.2-6.3-4.5c2.1-0.8,4.2-1.5,7-2.5c0,10.2,0,19.5,0,29.1
		c-2.1,0-4.2,0-6.7,0c0-3.2,0.1-6.1-0.1-9C156.8,147.8,155.7,147.2,155.1,146.6z"/>
	<path class="st13" d="M75,92.1c0,9.3,0,18.5,0,27.8c-0.5-0.5-1.3-1-1.3-1.4c-0.1-8.3-0.1-16.6,0-24.9C73.7,93.1,74.5,92.6,75,92.1z
		"/>
	<path class="st14" d="M136.2,130.1c0.3,7,0.6,14.1,0.7,21.1c0,1.9-0.4,3.9-0.7,5.8C136.3,148,136.3,139,136.2,130.1z"/>
	<path class="st13" d="M80,112c-1.7-3.8-1.5-4.8,0.9-4.9C80.6,108.7,80.3,110.4,80,112z"/>
	<path class="st15" d="M125,50.1c-0.3,0-0.6,0.1-0.9,0.1C124.3,49.9,124.7,49.9,125,50.1z"/>
</g>
</svg>
