<?xml version="1.0" encoding="utf-8"?>
<!-- Generator: Adobe Illustrator 22.0.0, SVG Export Plug-In . SVG Version: 6.00 Build 0)  -->
<svg version="1.1" id="SL0_xA0_Image_1_" xmlns="http://www.w3.org/2000/svg" xmlns:xlink="http://www.w3.org/1999/xlink" x="0px"
	 y="0px" viewBox="0 0 206 206" style="enable-background:new 0 0 206 206;" xml:space="preserve">
<style type="text/css">
	.st0{fill:#DF0235;}
	.st1{fill:#DE0935;}
	.st2{fill:#CF0930;}
	.st3{fill:#E02752;}
	.st4{fill:#D11B43;}
	.st5{fill:#CD0D36;}
	.st6{fill:#D31F44;}
	.st7{fill:#D71740;}
	.st8{fill:#C9103B;}
	.st9{fill:#CD1339;}
	.st10{fill:#D41F45;}
	.st11{fill:#D51B41;}
	.st12{fill:#CB2248;}
</style>
<g>
	<path class="st0" d="M91,1c8.7,0,17.3,0,26,0c1.5,0.5,2.9,1.2,4.4,1.5c43.9,8.2,75.9,40.2,84.1,84.1c0.3,1.5,1,3,1.5,4.4
		c0,9,0,18,0,27c-0.6,1.6-1.4,3.2-1.7,4.9c-8.1,42.3-40.3,74.4-82.8,82.5c-1.8,0.3-3.6,1.1-5.4,1.7c-9,0-18,0-27,0
		c-1.6-0.6-3.2-1.4-4.9-1.7C43,197.2,10.8,165,2.7,122.9c-0.3-1.7-1.2-3.2-1.7-4.9c0-9.3,0-18.7,0-28c0.6-1.6,1.4-3.2,1.7-4.9
		C10.9,42.8,43,10.7,85.6,2.7C87.4,2.3,89.2,1.6,91,1z M136.6,93.8l0.1-0.2c-0.4,0.4-0.7,0.8-1.1,1.2l0.1-0.2
		c-0.9-0.2-1.9-0.4-2.8-0.7c1.5-1.9,1.1-3-1.3-3c-2.6-0.1-5.3-0.4-7.8,0.1c-4,0.8-7.9,2.1-11.8,3.2c-0.3,0.3-0.5,0.5-0.8,0.8
		c-0.4,0.3-0.8,0.6-1.2,1c-1,1.6-2,2.1-3-0.1c-0.5-0.7-0.9-1.5-1.4-2.2l0-0.1l0.1-0.3l-0.3-0.2c-0.5-0.4-1-0.7-1.5-1.1
		c-1.3-0.4-2.7-0.7-4-1.1c-1,0-2.1,0-3.1,0c-1.9,0.4-3.7,0.8-5.6,1.1c-4.6,0.5-5.5,4.2-7.1,7.6c-0.9,2-2.4,4.5-4.1,5
		c-3.2,0.9-3.1,2.9-3,5.3c-0.7,0-1.3,0-2,0c-0.1-1.5-0.6-3.1-0.4-4.5c1.2-7.2,2.5-14.4,3.8-21.6c-4.8-1-8.3-1.3-8.6,4.2
		c-0.5,2.7-1.1,5.5-1.6,8.2c0,0,0.1-0.1,0.1-0.1c-0.4,1.9-0.7,3.7-1.1,5.6l0,0.3c-0.7,2.7-1.5,5.4-2.2,8l-0.2,0.2L65,110
		c0.3,0,0.7,0,1,0c0.9,5.2,4.6,7.2,9.2,7.9c4.7,0.7,7.5-1.7,8.7-6.1c0.6,0.4,1.3,0.8,1.9,1.2c0.3,0.4,0.6,0.7,0.9,1.1l-0.1-0.1
		c1.2,0.7,2.4,1.3,3.6,2c2.4,0,4.8,0,7.3,0l0.2,0.1c0,0,0.2-0.2,0.2-0.2c0.7-0.3,1.4-0.6,2.2-1c1.6-1.6,3.3-3.2,4.9-4.8
		c0.6-0.1,1.3-0.2,1.9-0.2c-0.1,1.8,0.2,3.8-0.5,5.3c-2.2,4.6-0.9,8.5,4,9.6c3.7,0.8,7.5,0.7,11.3,1c0.4,0,0.8,0.1,1.2,0.1
		c2.3,3.4,3.2,1.4,4-1c1.6-0.5,3.2-0.9,5.9-1.7c0.2-0.6,0.8-2.4,1.4-4.5c2,0.3,3.8,0.9,5.5,0.8c1.4-0.1,2.8-1,4.1-1.6
		c0.6-0.1,1.2-0.3,1.9-0.4c3.9,0.7,7.9,1.2,11.8,2c4.5,1,7.4-0.4,7.2-5.2c-0.1-3.6-1.3-7.1-1.9-10.6c0.1-2.9-0.3-6.5,3.9-6.8
		c4.3-0.3,4.5-2.8,4.3-5.5c-3.3-0.5-6.4-1.6-9.4-1.4c-4.8,0.4-6,4.2-5.8,9.4c-1.2-1.5-1.7-2.1-2.2-2.7c-0.2-0.7-0.5-1.4-0.7-2.1
		l0,0.1c-0.4-0.5-0.7-1-1.1-1.5c0-0.4-0.1-0.5-0.5-0.5c-0.5-0.3-1-0.7-1.5-1c-1.3-0.3-2.5-0.6-3.8-0.9c-0.8,0-1.6,0-2.4,0.1
		c-2,0.6-4,1.3-5.9,1.9C137.5,93.2,137.1,93.5,136.6,93.8z M33,115c0.5-0.3,1-0.6,1.5-0.9l0.3,0l0.1-0.3c1-1.3,1.9-2.5,2.9-3.8
		c0.3-0.2,0.4-0.4,0.2-0.7c0.7,0.5,1.5,1,2.1,1.5c2.1,1.9,3.9,5,6.3,5.6c3.2,0.9,6.9,0.2,10.3-0.3c4.3-0.6,4.5-3.1,2.2-6.3
		c0-0.5,0-1.1,0-1.6c5-3.7,6.4-8.1,3.4-13.7c-2.2-4-6.5-4.4-10.9-3.7c-6.4,0.9-9.3,5.1-10.7,10.9c-0.3,1.2,0.6,4.8-2.8,2.1
		c-2.7-2.3-5.4-4.6-8-7c-0.9-0.8-1.5-1.9-2.2-2.9c1.2-0.6,2.4-1.7,3.7-1.7c2.9-0.1,5.9,0.3,9.1,0.5c0.3-1.9,0.5-3.5,0.7-5
		c-5-2.2-13-2.7-16.6-0.5c-5.8,3.6-9.6,8.8-1.2,14.4c1.4,0.9,2.9,1.7,4.1,2.8c1.2,1.1,2.1,2.6,3.2,3.9c-1.7,0.6-3.4,1.6-5.2,1.8
		c-2.6,0.2-5.3-0.1-9.3-0.3c0.7,2.4,1.2,5.7,1.8,5.7C23,115.8,28,115.3,33,115z M174.5,103.7c2.2,0,4.3,0,6.4,0c0.5,0,1,0,1.5-0.1
		c4.1-0.6,6.7-3.8,6.2-7.6c-0.5-3.5-4.1-6.3-7.5-5.8c-4.4,0.7-6.1,3.4-5.7,7.9C175.7,99.8,175,101.4,174.5,103.7z M82.2,99.6
		c0.2,0,0.4,0,0.6,0c0-0.7-0.1-1.4-0.1-2.1c-0.2,0-0.3,0-0.5,0C82.2,98.2,82.2,98.9,82.2,99.6z"/>
	<path class="st1" d="M131.6,110.2c0.3,3.6,2.4,5.5,5.9,6c2.2,0.6,4.4,1.2,6.5,1.9c-1.4,0.6-2.7,1.5-4.1,1.6
		c-1.8,0.1-3.6-0.5-5.5-0.8c-0.6,2.1-1.2,3.8-1.4,4.5c-2.7,0.8-4.3,1.2-5.9,1.7c0,0-0.1,0-0.1,0c-0.7-0.4-1.5-0.7-2.2-1.1
		c3.2-2.8,5.3-5.9,3.1-10.3c-0.2-0.9-0.5-1.8-0.7-2.7c-0.4,0.4-0.9,0.8-1.3,1.2c-1.6-0.4-3.2-0.8-4.8-1.2c0.7-1,1.3-1.9,2-2.9
		c0.2-0.2,0.4-0.3,0.7-0.1c2.2,1.5,5.9-2.1,7.3,2.1C131.2,110.1,131.3,110.2,131.6,110.2z"/>
	<path class="st1" d="M152,114c2.3,0.8,4.5,2.1,6.8,2c0.9-0.1,1.9-3.2,2.5-5c0.8-2.3,1.2-4.7,1.7-7.1c0.7,3.5,1.8,7.1,1.9,10.6
		c0.2,4.8-2.7,6.2-7.2,5.2c-3.9-0.9-7.9-1.4-11.8-2c0.4-0.5,0.8-1.1,1.2-1.6c0.3,0.1,0.6,0.1,0.9-0.2
		C149.3,115.3,150.7,114.6,152,114z"/>
	<path class="st2" d="M78.8,110.3c-0.4,0-0.7,0-1.1,0.1c-0.2-0.1-0.5-0.3-0.7-0.4c0-2.3-0.2-4.3,3-5.3c1.7-0.5,3.2-3.1,4.1-5
		c1.6-3.3,2.5-7.1,7.1-7.6c-1.1,1.3-2.2,2.5-3.3,3.8c-0.3,0.4-0.6,0.7-0.9,1.1c0,0,0,0,0,0c-0.3,0.6-0.6,1.3-0.8,1.9
		c-0.3,1-0.5,2.1-0.8,3.1c-0.1,1-0.2,2-0.3,2.9c-0.2,0.2-0.3,0.4-0.1,0.7c-0.1,0.8-0.3,1.5-0.4,2.3c-0.2,0.6-0.3,1.3-0.5,1.9
		C82.3,110,80.5,110.1,78.8,110.3z"/>
	<path class="st3" d="M59,109.9c-2.2,0.2-4.4,0.4-6.7,0.7c0.1-1.5,0.2-3,0.2-4.4c2.2,0.7,4.3,1.5,6.5,2.2
		C59,108.8,59,109.3,59,109.9z"/>
	<path class="st4" d="M67.2,101.9c-0.4,2.7-0.8,5.4-1.1,8.1c-0.3,0-0.7,0-1,0l0,0C65.7,107.3,66.5,104.6,67.2,101.9z"/>
	<path class="st1" d="M127,125c-0.8,2.4-1.8,4.4-4,1c0,0,0,0,0,0C124.3,125.7,125.6,125.3,127,125C127,125,127,125,127,125z"/>
	<path class="st2" d="M82.2,99.6c0-0.7,0-1.4,0-2.1c0.2,0,0.3,0,0.5,0c0,0.7,0.1,1.4,0.1,2.1C82.6,99.6,82.4,99.6,82.2,99.6z"/>
	<polygon class="st4" points="65,110 64.8,110.2 65,110 	"/>
	<path class="st1" d="M121.8,125.9c0.4-0.4,0.7-0.8,1.1-1.1c0,0.4,0.1,0.8,0.1,1.2c0,0,0,0,0,0C122.6,126,122.2,126,121.8,125.9z"/>
	<path class="st5" d="M92.9,100c1.1-1.1,2.1-2.1,3.2-3.2c0.7,0.1,1.3,0.1,2,0.2c0.1,0.3,0.2,0.7,0.2,1c0.1,1.7,0.7,3.5,0.3,5
		c-0.8,2.6-2.2,5-3.3,7.4c-0.7,0-1.5,0-2.2,0c-0.3-0.2-0.6-0.3-0.9-0.5c0-0.3-0.1-0.6-0.2-0.9c0-1.7,0-3.3,0.1-5
		c0.1-0.5,0.2-1,0.2-1.4C92.4,101.7,92.6,100.9,92.9,100z"/>
	<path class="st6" d="M120,104.3c-1.9-2-2.9-3.1-3.9-4.2c1.6-1.3,3-3,4.9-3.9c0.5-0.3,3.2,2.2,3,2.5
		C123.1,100.5,121.7,102,120,104.3z"/>
	<path class="st7" d="M116.9,121.3c-1.6-1.5-2.9-2.7-4.1-3.8c0.8-0.8,1.9-2.3,2.5-2.2c2,0.6,3.8,1.8,5.8,2.8
		C119.9,119,118.7,119.9,116.9,121.3z"/>
	<path class="st8" d="M131,110c-1.4-4.2-5.1-0.6-7.3-2.1c2.1-1.7,4.2-3.4,6.3-5.1c0.3,0.1,0.6,0.2,1,0.3c0.1,0.3,0.2,0.6,0.3,0.9
		C131.2,106,131.1,108,131,110z"/>
	<path class="st8" d="M123,108c-0.7,1-1.3,1.9-2,2.9c-1.8-0.4-3.7-0.8-5.5-1.1c0-0.4,0-0.7,0-1.1C117.9,108.5,120.5,108.2,123,108z"
		/>
	<path class="st0" d="M123,126c0-0.4-0.1-0.8-0.1-1.2c0.6-0.3,1.2-0.6,1.9-0.9c0.7,0.4,1.5,0.7,2.2,1.1
		C125.6,125.3,124.3,125.7,123,126z"/>
	<path class="st0" d="M125.8,112.1c0.4-0.4,0.9-0.8,1.3-1.2c0.2,0.9,0.5,1.8,0.7,2.7c-0.3-0.2-0.6-0.5-0.9-0.7
		C126.6,112.6,126.2,112.3,125.8,112.1L125.8,112.1z"/>
	<path class="st9" d="M138.1,107.5c0.3-0.5,0.6-1.1,0.9-1.6c5,0,10,0.1,15,0.1c-0.7,2.3-1.4,4.7-2.1,7c-0.4-1.7,0.4-4.3-2.9-3.7
		c-2.3,0-4.7,0-7,0.1C140.7,108.7,139.4,108.1,138.1,107.5z"/>
	<path class="st10" d="M146.5,101.2c-2.2,0-4.5,0-6.7,0c-0.2-0.5-0.5-1-0.7-1.5c1.9-1.1,3.6-2.6,5.6-2.9c0.8-0.1,2.1,2.2,3.1,3.5
		C147.4,100.5,146.9,100.9,146.5,101.2z"/>
	<path class="st11" d="M57.2,101.1c-3.8,0-6,0-8.2,0c-0.2-0.6-0.5-1.1-0.7-1.7c1.8-0.9,3.6-2.3,5.4-2.6
		C54.6,96.8,55.7,99.1,57.2,101.1z"/>
	<path class="st12" d="M52.6,106.1c-0.1,1.5-0.2,3-0.2,4.4c-1.3-0.3-2.7-0.6-4.1-0.9c0.3-0.2,0.5-0.5,0.8-0.7c0.5-0.9,1-1.8,1.5-2.8
		C51.3,106.1,51.9,106.1,52.6,106.1z"/>
	<path class="st12" d="M48.3,109.6c-1.4-1.9-2.2-3.5,1.3-3.5c-0.2,0.9-0.4,1.9-0.6,2.8C48.8,109.1,48.6,109.4,48.3,109.6z"/>
	<path class="st3" d="M49.1,108.9c0.2-0.9,0.4-1.9,0.6-2.8c0.3,0,0.6,0,1,0.1C50.1,107.1,49.6,108,49.1,108.9z"/>
</g>
</svg>
