<?xml version="1.0" encoding="utf-8"?>
<!-- Generator: Adobe Illustrator 22.0.1, SVG Export Plug-In . SVG Version: 6.00 Build 0)  -->
<svg version="1.1" id="Layer_1" xmlns="http://www.w3.org/2000/svg" xmlns:xlink="http://www.w3.org/1999/xlink" x="0px" y="0px"
	 viewBox="0 0 288 560" enable-background="new 0 0 288 560" xml:space="preserve">
<g>
	<path fill="#222545" d="M285.4,374.7c-94.3,0-188.6,0-282.9,0c0-87.7,0-175.3,0-263c94.2,0,188.5,0,282.9,0
		C285.4,199.6,285.4,287.2,285.4,374.7z M140.8,124.6c-65.3-0.1-118.3,52.3-118.4,116.8c-0.1,64.4,53,116.9,118.3,117
		c65.3,0.1,118.4-52.4,118.4-116.8C259.2,177.1,206.2,124.7,140.8,124.6z"/>
	<path fill="#32D3D1" d="M140.8,124.6c65.3,0.1,118.3,52.5,118.3,116.9c0,64.5-53.2,116.9-118.4,116.8
		c-65.3-0.1-118.3-52.5-118.3-117C22.5,176.9,75.6,124.6,140.8,124.6z M244.9,241.6c-0.4-58-46.5-101.8-101.6-102.9
		c-58-1.1-105.9,44.2-106.8,100.4C35.6,296,81.4,343.4,138,344.3C197.3,345.2,244,300.3,244.9,241.6z"/>
	<path fill="#232646" d="M244.9,241.6C244,300.3,197.3,345.2,138,344.3C81.4,343.4,35.6,296,36.5,239.1
		c0.9-56.3,48.8-101.6,106.8-100.4C198.4,139.8,244.5,183.6,244.9,241.6z M117.7,207.6c0.6,0.2,1.3,0.4,1.9,0.6
		c-1.9,2.4-3.9,4.8-5.7,7.4c-0.7,1-1.1,2.5-0.9,3.6c0.6,4.4,1.6,8.8,2.3,12.8c-4,1.7-7.8,3.3-11.6,5c-6.6-5-13.2-9.9-19.9-14.9
		c-0.2-0.1-0.4-0.2-0.6-0.3c0,0.2,0.1,0.5,0.1,0.7c7,11.4,16.6,20.3,28.4,26.7c8.5,4.6,17.7,6.8,27.3,6
		c20.1-1.6,35.5-11.2,45.8-28.7c7.7-13.1,6.7-28.9-5.6-39.4c-8.5-7.2-21.7-7.6-29.2,2.4c-1.4,1.8-2.9,3.6-4.3,5.4
		c-0.3-1.4-0.7-2.8-0.9-4.2c-0.3-2.3-1.3-3.6-3.8-3.5c1.2-2,2.1-4.4,3.7-6c8.3-8,23.8-8.8,33.3-2.3c15.7,10.6,19.1,30.8,11.4,46.7
		c-5.5,11.4-14.5,19.3-25,25.9c-2.4,1.5-5,2.8-7.5,4.3c0.7,0.2,1.3,0.3,1.8,0.1c5.1-2.3,10.5-4.1,15.4-7
		c15.4-9.1,24.6-22.3,24.6-40.6c0-13.9-5.7-25.6-16-35.1c-3.5-7.1-9.5-11.3-16.6-14.1c-5.9-2.3-12.1-1.2-18.1-1.1
		c-1.2-0.1-2.4-0.4-3.5-0.2c-5.3,0.9-10.6,2-15.9,3.1c-1.9,0.1-3.9-0.1-5.8,0.2c-14.4,2.1-25,16.9-25.7,30.3
		c-0.4,7.6,4.1,13.8,13.4,11.4c0.9,0.5,1.8,1,2.7,1.5c-2.6,3.5-5.2,6.9-7.9,10.4c-1.1,1.3-1.3,2.3,0.4,3.3c0.7,0.4,1.4,0.9,2.4,1.5
		c1.6-2,3.2-4,4.8-5.9C114.6,211.5,116.1,209.5,117.7,207.6z M155.3,303.7c1.4,5.7,1.4,5.5,6.9,5.7c2.5,0.1,4.2-0.8,5.6-2.7
		c2.4-3.3,4.6-6.8,7.3-9.8c3.8-4.3,3.5-9.3,3.2-14.3c0-0.6-0.8-1.7-1.4-1.7c-2.4-0.2-4.8-0.1-7.1-0.1c-0.3,10.6-0.3,10.6-3.6,13.7
		c-0.2-0.5-0.4-1.1-0.8-1.6c-2.7-2.9-1.9-6.5-2-10c0-0.7-0.7-2-1.1-2c-2.4-0.2-4.8-0.1-7.1-0.1c-0.7,10-0.7,10,3.2,15.5
		C163.1,302.5,163.1,302.5,155.3,303.7z M117.7,280.7c-2.9,0-5.5,0-8.7,0c0,3.8,0.1,7.5-0.1,11.1c0,0.9-0.5,2.2-1.2,2.7
		c-2.3,1.6-4.7,0.5-4.9-2.4c-0.2-3.7-0.1-7.5-0.1-11.5c-1.9,0-3.6,0.1-5.3,0c-1.8-0.2-2.8,0.5-2.8,2.3c-0.1,4.5-0.5,9.1,0,13.6
		c0.4,4.1,3,6,7.1,5.6c2.4-0.2,4.7-1.4,7.1-2.1c1,2.7,3.5,3.3,8.8,1.7C117.7,294.9,117.7,287.9,117.7,280.7z M189.6,302.1
		c0-4,0-7.8,0-11.6c0-2.4,1.7-3.3,3.6-3.3c1.9,0,2.4,1.6,2.4,3.3c0,1.9,0,3.9,0,5.8c0,6.4,0,6.4,6.5,6c1.5-0.1,2-0.7,2-2.1
		c-0.1-4.7-0.1-9.3-0.2-14c-0.1-3.7-2.3-6.2-6-6c-2.7,0.1-5.4,1.2-8.2,1.9c-0.2-0.4-0.5-1.2-0.9-2.1c-2.8,0.5-5.5,0.9-7.5,1.3
		c0,7.2,0,13.9,0,20.9C184.2,302.1,186.7,302.1,189.6,302.1z M73.6,295.1c1.3,2.4,2.2,4.5,3.5,6.4c0.4,0.7,1.8,1.3,2.6,1.1
		c9.2-2,15.6-10.8,7.6-18.7c-1.3-1.3-1.8-3.3-2.6-4.9c1.8-0.9,3.6-1.8,5.6-2.8c-1.4-7-4.5-8.4-10.9-4.2c-5.1,3.4-5.7,8.7-1.6,13.5
		c0.8,1,1.7,1.9,2.5,2.9c1.7,2.4,1,4.5-1.7,5.5C77,294.4,75.5,294.7,73.6,295.1z M152.4,269.1c-8.6-0.5-11.1,1.9-12.1,11
		c-3.7,1.8-1.5,4.9-2.2,7.2c2.7,0.7,2.7,0.7,2.7,3.3c0,3.8,0,7.7,0,11.6c3.2,0,5.9,0,8.6,0c0-5,0-9.7,0-14.5c1.4,0,2.8,0,4.3,0
		c-0.1-2.5-0.2-4.7-0.4-7.2c-1.7,0-3.1,0-4.5,0c-0.4-4.1-0.4-4.2,4.5-5.7C153.1,273,152.8,271.1,152.4,269.1z M136.8,289.1
		c0-2.9,0-5.7,0-9c-2.6,0.9-4.9,1.6-7.3,2.4c-0.1-0.6-0.2-1.4-0.4-2.5c-2.8,0.5-5.4,0.9-7.4,1.2c0,7.2,0,14.1,0,21
		c3.3,0,5.9,0,8.8,0c-0.1-2-0.2-3.8-0.2-5.5c-0.1-6.6-0.1-6.6,6.2-7.3C136.5,289.4,136.6,289.3,136.8,289.1z"/>
	<path fill="#83CED6" d="M145.8,194.9c1.4-1.8,2.9-3.6,4.3-5.4c7.5-10,20.8-9.7,29.2-2.4c12.3,10.5,13.3,26.3,5.6,39.4
		c-10.3,17.4-25.7,27-45.8,28.7c-9.5,0.8-18.7-1.3-27.3-6c-11.8-6.4-21.3-15.2-28.4-26.7c0.2-0.1,0.3-0.3,0.5-0.4
		c6.6,5,13.2,9.9,19.9,14.9c-0.3,2.4,0.9,3.6,3.1,4c2.4,0.4,4.9,0.8,7.3,1.2c11.8,5.7,24.1,7.8,36.7,3.1c7.8-2.9,14.2-7.9,18.2-15.4
		c4.7-6.8,6.6-14.5,5.1-22.6c-1.4-7.9-6.9-12.8-14.9-13c-4.4-0.1-8.8,1-13.2,1.6C146,195.5,145.9,195.2,145.8,194.9z"/>
	<path fill="#FBFCFC" d="M114.2,242.1c-2.4-0.4-4.9-0.8-7.3-1.2c-2.2-0.4-3.4-1.6-3.1-4c3.8-1.6,7.6-3.3,11.6-5
		c-0.8-4-1.7-8.4-2.3-12.8c-0.2-1.2,0.2-2.7,0.9-3.6c1.7-2.6,3.8-4.9,5.7-7.4c2.6-3,5.3-6.1,7.9-9c1.5,0.6,2.8,1.2,4,1.7
		c5.1,2.9,10.3,5.6,15.4,8.6c1,0.6,1.9,1.8,2.3,3c1.1,3.9,2,7.8,3,11.7c0.1,0.9,0.1,1.8,0.2,2c5.3,0.2,10.2,0.5,15.1,0.7
		c0.4,1,0.8,2,1.2,2.9c-2.2,1.1-4.4,2.2-6.6,3.3c-0.6,0.2-1.3,0.4-2,0.6c-13.7,2.8-27.4,5.6-41.1,8.4
		C117.3,242.1,115.8,242.1,114.2,242.1z M129.8,230.2c2.9-0.4,5.3-0.7,8.1-1.1c-0.7-3.7-1.3-7.1-1.9-10.7c-2.9,0.6-5.3,1.1-8,1.6
		C128.5,223.4,129.1,226.6,129.8,230.2z"/>
	<path fill="#83CDD6" d="M182.9,173.2c10.3,9.4,15.9,21.1,16,35.1c0.1,18.4-9.2,31.5-24.6,40.6c-4.8,2.8-10.2,4.7-15.4,7
		c-0.5,0.2-1.1,0.2-1.8-0.1c2.5-1.4,5-2.7,7.5-4.3c10.5-6.5,19.5-14.5,25-25.9c7.8-15.9,4.4-36.1-11.4-46.7
		c-9.6-6.4-25.1-5.7-33.3,2.3c-1.6,1.6-2.5,4-3.7,6c0,0,0.1-0.1,0.1-0.1c-0.2,0.2-0.4,0.3-0.6,0.5c-1.6,0.7-4,0.9-4.6,2.1
		c-0.6,1.4,0.3,3.5,0.7,5.7c-2.8-1.4-5.1-2.7-7.5-3.9c0.4-1.1,0.8-2.2,1.3-3.2c1.3-2.8,2.4-5.7,4.1-8.3c3.2-5,7.9-8.3,13-10.9
		c8.7-4.4,17.8-5.3,26.8-0.7C177.2,169.9,180,171.6,182.9,173.2z"/>
	<path fill="#61AEB5" d="M182.9,173.2c-2.9-1.6-5.7-3.3-8.6-4.8c-9-4.6-18-3.7-26.8,0.7c-5.1,2.6-9.8,6-13,10.9
		c-1.6,2.6-2.8,5.5-4.1,8.3c-0.5,1-0.8,2.1-1.3,3.2c-2.3-1.5-4.5-1.5-6.2,1c-2.9-7.7-0.8-14.4,4.3-20.4c4.9-5.8,11-10,18.2-12.4
		c0.9-0.3,1.7-1,2.6-1.6c6.1-0.1,12.2-1.3,18.1,1.1C173.4,161.9,179.3,166.1,182.9,173.2z"/>
	<path fill="#4C8E99" d="M148.1,158.1c-0.9,0.5-1.7,1.2-2.6,1.6c-7.2,2.5-13.3,6.6-18.2,12.4c-5.1,6-7.2,12.7-4.3,20.4
		c-3.2,3.9-6.4,7.9-9.7,11.8c-0.9-0.5-1.8-1-2.7-1.5c-0.3-1.2-0.7-2.4-0.9-3.6c-0.7-2.8-1.8-5.6-1.8-8.4c0-8,2.8-15.2,8.6-20.7
		c3.7-3.5,8.2-6.2,12.3-9.2c5.3-1,10.6-2.1,15.9-3.1C145.8,157.6,147,158,148.1,158.1z"/>
	<path fill="#FAFAFB" d="M155.3,303.7c7.8-1.1,7.8-1.1,3.2-7.5c-3.9-5.5-3.9-5.5-3.2-15.5c2.3,0,4.7-0.1,7.1,0.1
		c0.4,0,1.1,1.3,1.1,2c0.1,3.5-0.7,7,2,10c0.4,0.4,0.5,1,0.8,1.6c3.3-3.2,3.3-3.2,3.6-13.7c2.3,0,4.7-0.1,7.1,0.1
		c0.5,0,1.3,1.1,1.4,1.7c0.3,5,0.6,10-3.2,14.3c-2.7,3-4.9,6.5-7.3,9.8c-1.4,2-3.1,2.8-5.6,2.7C156.7,309.2,156.7,309.3,155.3,303.7
		z"/>
	<path fill="#F8F9F9" d="M113.4,204.2c3.2-3.9,6.4-7.9,9.7-11.8c1.7-2.5,3.8-2.4,6.2-1c2.4,1.2,4.7,2.5,7.5,3.9
		c-0.3-2.2-1.3-4.3-0.7-5.7c0.5-1.2,3-1.4,4.6-2.1c0.2-0.2,0.4-0.3,0.6-0.5c0,0-0.1,0.1-0.1,0.1c2.5-0.2,3.5,1.2,3.8,3.5
		c0.2,1.4,0.6,2.8,0.9,4.2c0.1,0.3,0.2,0.6,0.4,1c0.6,2.8,0.4,6.2,4.3,7c5.5,2.7,5.5,2.7,3.4,7c-1.3-0.3-2.6-0.4-3.7-0.9
		c-6-3.1-11.8-6.4-17.8-9.6c-1.9-1.1-3.7-2.2-5.7-3.5c-3.1,4.1-6,8-8.9,11.8c-1.6,2-3.1,3.9-4.7,5.9c-1.6,1.9-3.1,3.9-4.8,5.9
		c-0.9-0.6-1.6-1.1-2.4-1.5c-1.7-0.9-1.5-1.9-0.4-3.3C108.1,211.2,110.7,207.7,113.4,204.2z"/>
	<path fill="#60AEB5" d="M128.8,160.9c-4.1,3-8.6,5.7-12.3,9.2c-5.8,5.5-8.6,12.7-8.6,20.7c0,2.8,1.2,5.6,1.8,8.4
		c0.3,1.2,0.6,2.4,0.9,3.6c-9.3,2.4-13.7-3.7-13.4-11.4c0.6-13.4,11.3-28.2,25.7-30.3C124.9,160.8,126.8,161,128.8,160.9z"/>
	<path fill="#FBFBFB" d="M117.7,280.7c0,7.1,0,14.1,0,21c-5.3,1.6-7.8,1-8.8-1.7c-2.4,0.7-4.7,1.9-7.1,2.1c-4.1,0.4-6.7-1.5-7.1-5.6
		c-0.4-4.5,0-9.1,0-13.6c0-1.9,1-2.5,2.8-2.3c1.7,0.2,3.5,0,5.3,0c0,4-0.2,7.7,0.1,11.5c0.2,2.9,2.6,4.1,4.9,2.4
		c0.7-0.5,1.1-1.7,1.2-2.7c0.1-3.7,0.1-7.4,0.1-11.1C112.2,280.7,114.8,280.7,117.7,280.7z"/>
	<path fill="#FAFAFB" d="M189.6,302.1c-2.9,0-5.4,0-8.4,0c0-6.9,0-13.7,0-20.9c2.1-0.3,4.7-0.8,7.5-1.3c0.4,0.9,0.8,1.7,0.9,2.1
		c2.9-0.7,5.5-1.7,8.2-1.9c3.7-0.2,5.9,2.4,6,6c0.1,4.7,0.1,9.3,0.2,14c0,1.4-0.4,2-2,2.1c-6.5,0.4-6.5,0.5-6.5-6c0-1.9,0-3.9,0-5.8
		c0-1.7-0.4-3.4-2.4-3.3c-1.9,0-3.6,0.9-3.6,3.3C189.6,294.3,189.6,298.1,189.6,302.1z"/>
	<path fill="#F9F9FA" d="M73.6,295.1c2-0.5,3.4-0.7,4.8-1.2c2.8-0.9,3.4-3.1,1.7-5.5c-0.7-1-1.6-1.9-2.5-2.9
		c-4.1-4.8-3.5-10,1.6-13.5c6.3-4.2,9.5-2.9,10.9,4.2c-2,1-3.8,1.9-5.6,2.8c0.9,1.7,1.4,3.7,2.6,4.9c8,7.9,1.6,16.7-7.6,18.7
		c-0.8,0.2-2.1-0.5-2.6-1.1C75.7,299.6,74.8,297.5,73.6,295.1z"/>
	<path fill="#FBFBFC" d="M152.4,269.1c0.4,2,0.7,3.9,1,5.7c-4.9,1.5-4.9,1.6-4.5,5.7c1.4,0,2.8,0,4.5,0c0.1,2.4,0.2,4.7,0.4,7.2
		c-1.5,0-2.9,0-4.3,0c0,4.8,0,9.5,0,14.5c-2.7,0-5.4,0-8.6,0c0-3.9,0-7.8,0-11.6c0-2.6,0-2.6-2.7-3.3c0.7-2.3-1.5-5.4,2.2-7.2
		C141.3,271,143.8,268.6,152.4,269.1z"/>
	<path fill="#F9F9F9" d="M136.8,289.1c-0.2,0.1-0.3,0.2-0.4,0.3c-6.3,0.8-6.3,0.8-6.2,7.3c0,1.7,0.1,3.5,0.2,5.5c-2.8,0-5.5,0-8.8,0
		c0-7,0-13.8,0-21c2-0.3,4.6-0.8,7.4-1.2c0.2,1.1,0.3,1.9,0.4,2.5c2.4-0.8,4.6-1.5,7.3-2.4C136.8,283.5,136.8,286.2,136.8,289.1z"/>
	<path fill="#5C97A2" d="M117.7,207.6c2.9-3.8,5.8-7.7,8.9-11.8c2,1.2,3.9,2.3,5.7,3.5c-0.3,0.5-0.6,1.1-0.9,1.6
		c-1.2-0.5-2.5-1-4-1.7c-2.6,3-5.2,6-7.9,9C119,208,118.3,207.8,117.7,207.6z"/>
	<path fill="#83CED6" d="M83.5,222.5c0-0.2-0.1-0.5-0.1-0.7c0.2,0.1,0.4,0.2,0.6,0.3C83.8,222.2,83.6,222.3,83.5,222.5z"/>
	<path fill="#262C4B" d="M150.4,202.8c-3.9-0.8-3.7-4.2-4.3-7c4.4-0.6,8.8-1.7,13.2-1.6c8,0.2,13.5,5.1,14.9,13
		c1.4,8.2-0.4,15.8-5.1,22.6c-0.2,0-0.4,0-0.5,0c-0.4-1-0.8-2-1.2-2.9c1.1-3,2.6-5.9,3.3-9c1.3-6.1,0.1-11.7-5-15.8
		c-5-4-10.8-4.4-17-3.6C149.3,200.2,149.9,201.5,150.4,202.8z"/>
	<path fill="#272E4D" d="M168.6,229.8c0.2,0,0.4,0,0.5,0c-4,7.5-10.4,12.5-18.2,15.4c-12.6,4.8-24.9,2.7-36.7-3.1c1.6,0,3.1,0,4.7,0
		c0.3,0.3,0.5,0.9,0.9,0.9c10.7,2,21.5,2.8,31.5-2.3c3.9-1.9,7.1-5,10.7-7.6C164.2,232,166.4,230.9,168.6,229.8z"/>
	<path fill="#61AFB6" d="M150.4,202.8c-0.6-1.3-1.1-2.7-1.8-4.3c6.2-0.8,12.1-0.4,17,3.6c5.1,4.1,6.3,9.7,5,15.8
		c-0.7,3.1-2.1,6-3.3,9c-4.9-0.2-9.8-0.4-15.1-0.7c0-0.2-0.1-1.1-0.2-2c2.4-4.6,3-9.4,1.7-14.4C155.9,205.5,155.9,205.5,150.4,202.8
		z"/>
	<path fill="#62AEB6" d="M162,233.1c-3.5,2.6-6.8,5.6-10.7,7.6c-10.1,5.1-20.8,4.3-31.5,2.3c-0.3-0.1-0.6-0.6-0.9-0.9
		c13.7-2.8,27.4-5.6,41.1-8.4C160.7,233.6,161.3,233.3,162,233.1z"/>
	<path fill="#303451" d="M153.9,209.8c1.2,5,0.6,9.8-1.7,14.4c-1-3.9-1.8-7.9-3-11.7c-0.3-1.1-1.3-2.4-2.3-3
		c-5.1-3-10.3-5.8-15.4-8.6c0.3-0.5,0.6-1.1,0.9-1.6c5.9,3.2,11.8,6.5,17.8,9.6C151.2,209.4,152.6,209.5,153.9,209.8z"/>
	<path fill="#2B2E4D" d="M129.8,230.2c-0.6-3.5-1.2-6.7-1.8-10.2c2.7-0.5,5.1-1,8-1.6c0.6,3.6,1.3,7,1.9,10.7
		C135.1,229.4,132.6,229.8,129.8,230.2z"/>
	<path fill="#232646" d="M141.2,187.1c-0.2,0.2-0.4,0.3-0.6,0.5C140.8,187.5,141,187.3,141.2,187.1z"/>
</g>
</svg>
