<svg xmlns="http://www.w3.org/2000/svg" width="20" height="20" viewBox="0 0 16 16">
    <g fill="none" fill-rule="nonzero">
        <path d="M17-1H-1v18h18z"/>
        <path fill="#4285F4" d="M15.663 8.188a9.38 9.38 0 0 0-.138-1.621H8.003v3.071h4.308a3.691 3.691 0 0 1-1.595 2.424v1.992h2.57c1.51-1.389 2.377-3.44 2.377-5.866z"/>
        <path fill="#34A853" d="M8.003 15.98c2.15 0 3.965-.707 5.286-1.926l-2.57-1.992c-.715.486-1.638.761-2.713.761-2.08 0-3.845-1.403-4.478-3.29H.876v2.054a7.976 7.976 0 0 0 7.127 4.392z"/>
        <path fill="#FBBC04" d="M3.525 9.533a4.777 4.777 0 0 1 0-3.054V4.425H.876a7.982 7.982 0 0 0 0 7.162l2.65-2.054z"/>
        <path fill="#EA4335" d="M8.003 3.185a4.334 4.334 0 0 1 3.06 1.196l2.276-2.277A7.665 7.665 0 0 0 8.003.029 7.974 7.974 0 0 0 .876 4.425l2.65 2.054c.63-1.89 2.396-3.294 4.477-3.294z"/>
    </g>
</svg>
