<?xml version="1.0" encoding="utf-8"?>
<!-- Generator: Adobe Illustrator 22.0.0, SVG Export Plug-In . SVG Version: 6.00 Build 0)  -->
<svg version="1.1" id="Calque_1" xmlns="http://www.w3.org/2000/svg" xmlns:xlink="http://www.w3.org/1999/xlink" x="0px" y="0px"
	 viewBox="0 0 1920 1080" style="enable-background:new 0 0 1920 1080;" xml:space="preserve">
<style type="text/css">
	.st0{fill:#02407F;}
	.st1{fill:#679FC9;}
	.st2{fill:#054280;}
</style>
<g>
	<path class="st0" d="M745.5,708.5c0-2,0-3.6,0-5.3c0-51.5,0-103-0.1-154.4c0-3.8,1.3-6,4.4-8.1c44.2-30.3,88.3-60.6,132.4-91
		c3.2-2.2,5.4-2.3,8.7,0c44.2,30.6,88.5,61,132.9,91.2c2.3,1.5,5.5,2.3,8.3,2.3c48.6,0.1,97.3,0.2,145.9,0c4.8,0,6.1,1.2,6.1,6.1
		c-0.2,51.5-0.1,103-0.1,154.4c0,1.5,0,3,0,4.8C1037.9,708.5,892,708.5,745.5,708.5z M928.4,592c0-17.3-0.1-34.7,0.1-52
		c0-3.8-0.8-5.2-4.9-5.2c-24.7,0.2-49.3,0.2-74,0c-4.1,0-5,1.4-4.9,5.2c0.1,34.8,0.1,69.6,0,104.5c0,3.8,0.9,5.3,5,5.2
		c24.7-0.2,49.3-0.2,74,0c4.2,0,4.9-1.5,4.9-5.3C928.3,627,928.4,609.5,928.4,592z M1067.8,613.5c0,10.5,0.1,21-0.1,31.5
		c0,3.3,0.6,4.9,4.4,4.8c20-0.1,39.9-0.1,59.9,0c3.2,0,4.3-1.1,4.3-4.4c-0.1-20.8-0.1-41.6,0-62.4c0-3.7-1.1-4.9-4.9-4.9
		c-19.6,0.2-39.3,0.2-58.9,0c-3.8,0-4.9,1.2-4.8,4.9C1067.9,593.2,1067.8,603.3,1067.8,613.5z"/>
	<path class="st1" d="M711,534.2c0-12.5-0.2-24,0.2-35.5c0.1-1.8,2.2-3.9,3.9-5.1c29.9-20.6,59.8-41.1,89.7-61.7
		c25.9-17.8,51.9-35.5,77.7-53.5c3.2-2.2,5.2-2,8.2,0c47.5,32.8,95.1,65.5,142.8,98.1c3.1,2.1,7.3,3.4,11,3.4
		c53.7,0.2,107.3,0.1,161,0.2c6.5,0,6.5,0,6.5,6.7c0,9.2-0.1,18.3,0.1,27.5c0.1,3.4-1,4.7-4.6,4.7c-55-0.1-110,0-165-0.2
		c-2.3,0-4.8-1.2-6.8-2.5c-47.8-32.7-95.6-65.4-143.2-98.4c-4.7-3.3-7.8-2.9-12.3,0.2c-54.6,37.7-109.4,75.3-164.1,112.9
		C714.8,531.9,713.4,532.7,711,534.2z"/>
	<path class="st2" d="M1010.3,448.9c-12.4-8.4-23.7-17.2-36-24c-10.7-5.9-14.4-13.4-13-25.2c1.1-9.3,0.2-18.9,0.2-28.6
		c16.5,0,32.5,0,48.8,0C1010.3,396.8,1010.3,422.3,1010.3,448.9z"/>
</g>
</svg>
