<?xml version="1.0" encoding="utf-8"?>
<!-- Generator: Adobe Illustrator 22.0.0, SVG Export Plug-In . SVG Version: 6.00 Build 0)  -->
<svg version="1.1" id="Calque_1" xmlns="http://www.w3.org/2000/svg" xmlns:xlink="http://www.w3.org/1999/xlink" x="0px" y="0px"
	 viewBox="0 0 1920 1080" style="enable-background:new 0 0 1920 1080;" xml:space="preserve">
<style type="text/css">
	.st0{fill:#56707C;}
	.st1{fill:#FDFDFE;}
	.st2{fill:#FDFDFD;}
	.st3{fill:#B1BFC6;}
	.st4{fill:#FBFCFC;}
	.st5{fill:#FCFCFC;}
	.st6{fill:#B0BEC5;}
	.st7{fill:#FCFCFD;}
	.st8{fill:#B5C2C9;}
	.st9{fill:#B3C1C8;}
	.st10{fill:#B4C2C8;}
	.st11{fill:#B4C2C9;}
	.st12{fill:#B2C0C7;}
	.st13{fill:#B4C1C8;}
	.st14{fill:#B3C1C7;}
	.st15{fill:#B3C0C7;}
	.st16{fill:#B2C0C6;}
</style>
<g>
	<path class="st0" d="M1121,732c-106.7,0-213.3,0-320,0c-0.3-0.4-0.5-1-0.8-1.1c-13.5-4.3-18-14.1-18-27.6
		c0.2-85,0.1-169.9,0.1-254.9c0-17.9,9.5-27.4,27.5-27.4c20.8,0,41.7,0,62.5,0c1.8,0,3.5,0,5.8,0c0-14.7,0.3-28.9-0.1-43
		c-0.4-14,4.7-23.9,18.6-28.2c0.2-0.1,0.3-0.5,0.4-0.8c59,0,118,0,177,0c0.2,0.4,0.4,1.1,0.7,1.2c12.6,3.4,18.2,14.4,18.1,27
		c-0.4,44.3-0.1,88.6-0.1,132.9c0,2.1,0,4.2,0,6.9c7.5,0,14.4,0,21.4,0c16.9,0,26.5,9.7,26.5,26.7c0,35.5,0,70.9,0,106.4
		c0,18.5,0,37,0,55.4c0,13.3-5.2,20.6-17.7,25.2C1122.2,730.9,1121.6,731.5,1121,732z M1116.9,684.1c0-8,0-16.1,0.1-24.1
		c0-8,0-15.9-0.1-23.9c0-8,0.1-16.1,0.1-24.1c0-8-0.1-15.9-0.1-23.9c0-8,0.1-16.1,0.1-24.1c0-7.7,0-15.4,0-23.1
		c-8.2,0-15.8,0-23.8,0c0,7.9,0,15.5,0,23c0,8.1,0.1,16.2,0.1,24.3c0,7.9-0.1,15.8-0.1,23.7c0,8.1,0.1,16.2,0.1,24.3
		c0,7.9-0.1,15.8-0.1,23.7c0,8.1,0,16.2,0.1,24.3c0,7.8,0,15.5,0,23.6c8,0,15.7,0,23.6,0C1116.9,699.6,1116.9,691.9,1116.9,684.1z
		 M1068.8,707.8c0-111.8,0-223.2,0-334.6c-55.8,0-111.2,0-166.7,0c0,111.7,0,223,0,334.4c23.9,0,47.5,0,71.6,0c0-24,0-47.6,0-71.1
		c8.1,0,15.7,0,23.8,0c0,23.9,0,47.5,0,71.3C1021.5,707.8,1045,707.8,1068.8,707.8z M806.1,707.7c24.1,0,47.6,0,71.4,0
		c0-87.7,0-175,0-262.5c-24,0-47.6,0-71.4,0C806.1,532.9,806.1,620.1,806.1,707.7z"/>
	<path class="st1" d="M1068.8,707.8c-23.8,0-47.3,0-71.3,0c0-23.8,0-47.3,0-71.3c-8.1,0-15.7,0-23.8,0c0,23.5,0,47.1,0,71.1
		c-24.1,0-47.7,0-71.6,0c0-111.4,0-222.7,0-334.4c55.5,0,110.9,0,166.7,0C1068.8,484.6,1068.8,596,1068.8,707.8z M937.6,540.3
		c-13.9,0.2-12.2-1.7-12.2,12.2c0,13.4-1.8,12.2,12.3,12.2c13.9,0,12,0.8,12-12.1C949.7,538.8,951.6,540.4,937.6,540.3z
		 M973.3,552.2c0.2,13.5-2,12.4,12.6,12.4c13.4,0,11.7,0.8,11.7-11.8c0-14.3,1.8-12.5-12.3-12.5
		C971.6,540.3,973.4,538.9,973.3,552.2z M985,420.9c13.9-0.2,12.6,2.1,12.6-11.8c0-14.3,1.8-12.1-12-12.2
		c-12.3-0.1-12.4,0-12.3,12.4C973.4,422.7,971.6,420.8,985,420.9z M937.9,444.9c-14.2,0.2-12.5-2-12.5,11.9c0,14-1.5,12,12.3,12.1
		c13.5,0,12,1.6,12-11.9C949.7,443.3,951.6,445.1,937.9,444.9z M985.3,468.9c13.6-0.2,12.3,1.8,12.3-11.6
		c-0.1-14.3,1.9-12.2-12.5-12.3c-13.6,0-11.8-1.7-11.8,12C973.3,470.5,971.7,468.7,985.3,468.9z M937.6,492.8
		c-13.7,0.2-12.3-1.6-12.2,11.1c0,14.7-1.8,12.7,12.6,12.8c13.3,0,11.8,1.3,11.7-11.6C949.7,491.3,951.7,493,937.6,492.8z
		 M973.3,504.9c0.1,13.1-1.6,11.7,11.6,11.8c0.3,0,0.7,0,1,0c13.2-0.1,11.8,1.5,11.8-11.6c0-14,1.8-12.2-12.1-12.2
		C971.4,492.9,973.4,491.3,973.3,504.9z M937.2,612.1c14.6-0.2,12.5,1.7,12.5-12.3c0.1-13.1,1.5-11.6-11.8-11.6
		c-14.3,0-12.5-1.8-12.5,12.3C925.4,613.8,923.8,612,937.2,612.1z M985.6,588.2c-14,0.1-12.3-1.7-12.3,12.1c0,13.4-1.8,11.8,12,11.8
		c14.1,0,12.3,1.8,12.3-12C997.6,586.6,999.1,588.3,985.6,588.2z M1021.2,552c0.3,13.3-2.3,12.6,11.9,12.6c13.7,0,12.1,1.3,12-11.9
		c0-14.3,1.9-12.4-12.3-12.5C1019.3,540.2,1021.4,539.2,1021.2,552z M925.8,648c0,12.1,0,12.2,11.7,12.1c14-0.1,12.2,1.9,12.2-12
		c0-13.6,1.6-11.9-11.9-12C925.8,636.1,925.8,636.1,925.8,648z M938,396.9c-13.9,0.2-12-2.1-12.2,12.1c0,0.2,0,0.3,0,0.5
		c0.1,13.2-1.2,11.3,11.5,11.4c12.4,0.1,12.5,0,12.4-12.4C949.6,395.1,951.4,397.1,938,396.9z M1045.1,409c0-12.1,0-12.2-12.1-12.1
		c-13.7,0.1-11.8-1.8-11.8,11.9c0,14-2,12.1,12,12.1C1046.7,420.9,1044.9,422.9,1045.1,409z M1021.2,456.8c0.2,13.8-2,12.1,11.7,12
		c13.9,0,12.2,2,12.2-12.1c0-13.6,1.8-11.8-12-11.8C1019.2,444.9,1021.4,443.3,1021.2,456.8z M1021.2,599.7
		c0.2,14-2.1,12.4,11.9,12.4c13.7,0,12,1.7,12-11.8c0-14,1.7-12.1-12.2-12.1C1019.3,588.2,1021.4,586.6,1021.2,599.7z M1021.2,648.2
		c0.2,13.7-1.9,11.8,11.9,11.9c12,0.1,12.1,0,12-12.3c-0.1-13.6,1.5-11.6-11.6-11.7C1021.2,636,1021.2,636.1,1021.2,648.2z
		 M1033.2,516.8c13.6-0.2,11.9,1.7,11.9-12c0-13.5,1.7-11.9-12-11.9c-13.9,0-11.9-1.5-11.9,11.9
		C1021.2,518.1,1019.3,516.7,1033.2,516.8z"/>
	<path class="st2" d="M806.1,707.7c0-87.6,0-174.9,0-262.5c23.8,0,47.5,0,71.4,0c0,87.5,0,174.9,0,262.5
		C853.7,707.7,830.2,707.7,806.1,707.7z M829.9,480.7c0.2,13.9-1.9,11.9,11.8,12.1c12.2,0.1,12.3,0,12.2-12.1
		c-0.1-13.4,2.2-11.8-12-11.8C827.9,468.9,830.1,467.2,829.9,480.7z M829.9,623.7c0,12.4,0,12.5,12.3,12.4
		c13.7-0.1,11.5,1.6,11.7-11.5c0.1-12.4,0-12.5-12.3-12.4C828.2,612.3,830.1,610.4,829.9,623.7z M841.8,660.1
		c-11.9,0-11.9,0-11.9,11.9c0,12.1,0,12.1,12.1,12.1c11.9,0,11.9,0,11.9-11.9C853.9,660.1,853.9,660.1,841.8,660.1z M841.6,564.2
		c-13.5,0.2-11.7-1.6-11.6,11.6c0,14.1-2.2,12.2,12.4,12.3c13.6,0,11.5,1.4,11.5-11.7C853.9,563.4,856.2,564.3,841.6,564.2z
		 M841.9,540.2c14.2-0.1,12,1.3,12-11.8c0-12.9,2.1-11.6-11.6-11.6c-14.3,0-12.3-1.5-12.3,11.5C830,541.6,827.9,540.1,841.9,540.2z"
		/>
	<path class="st3" d="M1117,564c0,8-0.1,16.1-0.1,24.1c-7.8,0-15.7,0.1-23.5,0.1c0-8.1-0.1-16.2-0.1-24.3
		C1101.1,563.9,1109,563.9,1117,564z"/>
	<path class="st4" d="M1093.3,588.2c7.8,0,15.7-0.1,23.5-0.1c0,8,0.1,15.9,0.1,23.9c-7.9,0-15.8-0.1-23.7-0.1
		C1093.3,604,1093.3,596.1,1093.3,588.2z"/>
	<path class="st3" d="M1093.2,611.9c7.9,0,15.8,0.1,23.7,0.1c0,8-0.1,16.1-0.1,24.1c-7.9,0-15.7,0.1-23.6,0.1
		C1093.3,628.1,1093.2,620,1093.2,611.9z"/>
	<path class="st5" d="M1093.3,636.2c7.9,0,15.7-0.1,23.6-0.1c0,8,0,15.9,0.1,23.9c-7.9,0-15.8-0.1-23.7-0.1
		C1093.3,652,1093.3,644.1,1093.3,636.2z"/>
	<path class="st6" d="M1093.2,659.8c7.9,0,15.8,0.1,23.7,0.1c0,8,0,16.1-0.1,24.1c-7.9,0-15.7,0.1-23.6,0.1
		C1093.3,676.1,1093.2,668,1093.2,659.8z"/>
	<path class="st7" d="M1093.3,684.2c7.9,0,15.7-0.1,23.6-0.1c0,7.8,0,15.6,0,23.7c-7.9,0-15.6,0-23.6,0
		C1093.3,699.7,1093.3,691.9,1093.3,684.2z"/>
	<path class="st2" d="M1117,564c-7.9,0-15.8-0.1-23.8-0.1c0-7.6,0-15.2,0-23c8,0,15.6,0,23.8,0C1117,548.5,1117,556.3,1117,564z"/>
	<path class="st8" d="M937.6,540.3c14,0.1,12.1-1.4,12.1,12.3c0,12.8,2,12.1-12,12.1c-14.1,0-12.3,1.2-12.3-12.2
		C925.4,538.6,923.7,540.4,937.6,540.3z"/>
	<path class="st8" d="M973.3,552.2c0.1-13.3-1.7-12,12-11.9c14.1,0,12.3-1.8,12.3,12.5c0,12.7,1.7,11.8-11.7,11.8
		C971.2,564.7,973.4,565.7,973.3,552.2z"/>
	<path class="st9" d="M985,420.9c-13.4-0.2-11.6,1.7-11.7-11.6c-0.1-12.5,0-12.6,12.3-12.4c13.8,0.1,12-2.1,12,12.2
		C997.6,423,999,420.7,985,420.9z"/>
	<path class="st10" d="M937.9,444.9c13.7,0.2,11.8-1.6,11.8,12c0,13.5,1.6,11.9-12,11.9c-13.8,0-12.4,1.9-12.3-12.1
		C925.4,442.9,923.6,445.1,937.9,444.9z"/>
	<path class="st10" d="M985.3,468.9c-13.6-0.1-12.1,1.6-12-11.9c0-13.7-1.8-12,11.8-12c14.4,0,12.5-2.1,12.5,12.3
		C997.7,470.7,999,468.7,985.3,468.9z"/>
	<path class="st11" d="M937.6,492.8c14,0.1,12.1-1.5,12.1,12.3c0,13,1.6,11.7-11.7,11.6c-14.4-0.1-12.6,1.9-12.6-12.8
		C925.4,491.2,923.9,493,937.6,492.8z"/>
	<path class="st11" d="M973.3,504.9c0.2-13.7-1.9-12.1,12.3-12.1c13.9,0,12-1.7,12.1,12.2c0,13.2,1.4,11.5-11.8,11.6
		c-0.3,0-0.7,0-1,0C971.7,516.7,973.4,518.1,973.3,504.9z"/>
	<path class="st11" d="M937.2,612.1c-13.4-0.2-11.8,1.6-11.8-11.6c0-14.2-1.7-12.3,12.5-12.3c13.3,0,11.8-1.5,11.8,11.6
		C949.7,613.9,951.7,612,937.2,612.1z"/>
	<path class="st11" d="M985.6,588.2c13.5,0.1,12-1.6,12,11.9c0,13.8,1.8,12-12.3,12c-13.8,0-12,1.6-12-11.8
		C973.3,586.5,971.6,588.3,985.6,588.2z"/>
	<path class="st10" d="M1021.2,552c0.2-12.9-1.9-11.8,11.6-11.7c14.2,0.1,12.3-1.8,12.3,12.5c0,13.1,1.7,11.9-12,11.9
		C1018.8,564.7,1021.4,565.3,1021.2,552z"/>
	<path class="st9" d="M925.8,648c0-11.9,0-11.9,12-11.9c13.4,0.1,11.9-1.6,11.9,12c0,13.9,1.8,11.9-12.2,12
		C925.8,660.2,925.8,660.1,925.8,648z"/>
	<path class="st9" d="M938,396.9c13.3,0.2,11.6-1.8,11.7,11.6c0.1,12.4,0,12.5-12.4,12.4c-12.7-0.1-11.4,1.8-11.5-11.4
		c0-0.2,0-0.3,0-0.5C926,394.8,924.2,397.2,938,396.9z"/>
	<path class="st12" d="M1045.1,409c-0.2,13.9,1.6,11.9-11.8,11.9c-14.1,0-12,1.9-12-12.1c0-13.7-1.9-11.8,11.8-11.9
		C1045.1,396.8,1045.1,396.9,1045.1,409z"/>
	<path class="st9" d="M1021.2,456.8c0.2-13.5-1.9-11.9,11.9-11.8c13.8,0,12-1.8,12,11.8c0,14.1,1.7,12.1-12.2,12.1
		C1019.2,468.8,1021.4,470.5,1021.2,456.8z"/>
	<path class="st13" d="M1021.2,599.7c0.2-13.1-1.9-11.5,11.7-11.5c13.9,0,12.2-1.9,12.2,12.1c0,13.5,1.7,11.8-12,11.8
		C1019.1,612.1,1021.4,613.7,1021.2,599.7z"/>
	<path class="st14" d="M1021.2,648.2c0-12,0-12.1,12.3-12c13.1,0.1,11.6-1.9,11.6,11.7c0.1,12.3,0,12.4-12,12.3
		C1019.2,660,1021.4,661.8,1021.2,648.2z"/>
	<path class="st13" d="M1033.2,516.8c-13.9-0.1-12,1.3-12-11.9c0-13.4-2-12,11.9-11.9c13.7,0,12-1.6,12,11.9
		C1045.1,518.5,1046.8,516.6,1033.2,516.8z"/>
	<path class="st14" d="M829.9,480.7c0.2-13.5-2-11.8,12-11.8c14.1,0,11.8-1.6,12,11.8c0.1,12.1,0,12.2-12.2,12.1
		C828,492.7,830.1,494.6,829.9,480.7z"/>
	<path class="st15" d="M829.9,623.7c0.2-13.3-1.7-11.4,11.7-11.5c12.3-0.1,12.4,0,12.3,12.4c-0.1,13.1,2.1,11.4-11.7,11.5
		C829.9,636.2,829.9,636.1,829.9,623.7z"/>
	<path class="st16" d="M841.8,660.1c12.1,0,12.1,0,12.1,12.1c0,11.9,0,11.9-11.9,11.9c-12.1,0-12.1,0-12.1-12.1
		C829.9,660.1,829.9,660.1,841.8,660.1z"/>
	<path class="st9" d="M841.6,564.2c14.6,0,12.3-0.8,12.3,12.2c0,13.1,2.1,11.7-11.5,11.7c-14.6,0-12.4,1.8-12.4-12.3
		C829.9,562.7,828.1,564.4,841.6,564.2z"/>
	<path class="st12" d="M841.9,540.2c-13.9-0.1-11.9,1.4-11.9-11.9c0-13-2-11.5,12.3-11.5c13.8,0,11.6-1.3,11.6,11.6
		C853.8,541.5,856.1,540.1,841.9,540.2z"/>
</g>
</svg>
