<?xml version="1.0" encoding="utf-8"?>
<!-- Generator: Adobe Illustrator 22.0.0, SVG Export Plug-In . SVG Version: 6.00 Build 0)  -->
<svg version="1.1" id="Calque_1" xmlns="http://www.w3.org/2000/svg" xmlns:xlink="http://www.w3.org/1999/xlink" x="0px" y="0px"
	 viewBox="0 0 1920 1080" style="enable-background:new 0 0 1920 1080;" xml:space="preserve">
<style type="text/css">
	.st0{fill:#204C9B;}
</style>
<g>
	<path class="st0" d="M862,628.8c-4.7,0-8.8,0-13.4,0c0-26.3,0-52.4,0-79.8c-5,3.2-9.1,5.7-14,8.9c0-9-0.1-17.2,0.1-25.5
		c0-1.1,1.5-2.5,2.7-3.3c40.2-27,80.5-54,120.9-80.9c1.3-0.9,4.3-0.8,5.6,0.1c24.5,16.2,48.9,32.6,73.3,49
		c15.4,10.4,30.8,20.8,46.4,31c2.8,1.8,4.2,3.7,4,7.2c-0.3,7.1-0.1,14.2-0.1,22.3c-4.9-3.1-8.9-5.7-13.8-8.8c0,27.1,0,53.1,0,79.6
		c-4.7,0-8.9,0-13.7,0c0-6.6,0.1-13.2-0.1-19.8c-0.1-2.2-0.7-4.6-1.8-6.5c-20-33.5-40.4-66.8-60.1-100.5
		c-4.5-7.8-11.9-11.3-18.4-16.1c-4.8-3.6-10-6.6-14.8-10.1c-2.5-1.8-4.5-2-7.2-0.2c-8.2,5.7-16.8,10.7-24.7,16.8
		c-4.1,3.2-7.5,7.8-10.3,12.4c-19.8,32.6-39.4,65.4-59,98.2c-1,1.6-1.4,3.7-1.5,5.6C861.9,615.2,862,621.8,862,628.8z M862.5,590
		c0.4,0.1,0.7,0.2,1.1,0.4c8.9-14.9,17.9-29.8,27.1-45.2c-10.1,0-19.2,0-28.2,0C862.5,560.4,862.5,575.2,862.5,590z M1031.2,545
		c9.4,15.7,18.4,30.5,27.3,45.4c0.4-0.2,0.8-0.4,1.2-0.6c0-14.8,0-29.7,0-44.8C1050.4,545,1041.4,545,1031.2,545z M913,507.8
		c-0.4-0.4-0.8-0.8-1.1-1.2c-14.9,10-29.9,20-44.8,30c0.1,0.5,0.3,0.9,0.4,1.4c8.7,0,17.4,0,26.1-0.1c0.7,0,1.7-0.6,2-1.2
		C901.5,527.1,907.2,517.4,913,507.8z M1054.4,538c0.2-0.5,0.4-1,0.6-1.5c-15-10-29.9-20-44.9-30c-0.3,0.4-0.7,0.8-1,1.2
		c5.7,9.5,11.4,19.1,17.2,28.6c0.5,0.8,1.9,1.5,2.8,1.5C1037.5,538.1,1045.9,538,1054.4,538z"/>
</g>
</svg>
