<?xml version="1.0" encoding="utf-8"?>
<!-- Generator: Adobe Illustrator 22.0.0, SVG Export Plug-In . SVG Version: 6.00 Build 0)  -->
<svg version="1.1" id="Calque_1" xmlns="http://www.w3.org/2000/svg" xmlns:xlink="http://www.w3.org/1999/xlink" x="0px" y="0px"
	 viewBox="0 0 1920 1080" style="enable-background:new 0 0 1920 1080;" xml:space="preserve">
<style type="text/css">
	.st0{fill:#CBCBCB;}
	.st1{fill:#E1E1E1;}
	.st2{fill:#CDCDCD;}
	.st3{fill:#CECECE;}
	.st4{fill:#CCCCCC;}
	.st5{fill:#DCDCDC;}
	.st6{fill:#E3E3E3;}
	.st7{fill:#D1D1D1;}
	.st8{fill:#DDDDDD;}
</style>
<g>
	<path class="st0" d="M1024,292c7.8,8.2,15.6,16.4,23.3,24.7c1.1,1.2,2.5,3.4,2.1,4.4c-0.5,1.2-2.8,2.2-4.4,2.4
		c-6.4,0.9-12.9,1.5-19.3,2.3c-15.8,2-31.6,3.8-47.3,6.4c-7.2,1.2-12.8,0.3-17.3-5.6c-1-1.2-2.4-2.1-4.4-3.8c-2,9.5-3.8,18-5.5,26.5
		c-0.2,0.8,0.1,1.8-0.2,2.5c-4.5,9.8,0.8,15.4,8.1,20.6c5.4,3.9,5.2,5.7-0.4,9.6c-0.4,0.3-0.8,0.6-1.2,0.9
		c-7.4,5.1-14.7,10.1-13.2,21.2c0.5,3.9-1.7,8.2-2.6,12.4c-0.7,0-1.4,0.1-2.1,0.1c-0.4-4-0.8-8.1-1.3-12.1
		c-0.8-6.5-1.6-13.1-2.7-19.5c-0.3-1.6-2-3-3.3-4.2c-14.7-13-29.4-26-44.1-38.9c-1.1-1-2.3-1.9-3.5-2.8c-4.2-2.9-4.3-5.3-0.2-8.4
		c3-2.3,6.2-4.4,9.2-6.8c3.4-2.7,6.1-2.5,9.5,0.6c8.2,7.6,17,14.7,26.7,23.1c0-3.2,0.4-5.1-0.1-6.8c-3.1-11.5-6.5-23-9.6-34.5
		c-1.2-4.6-2.1-9.3-3.1-14c15.3,0,30.7,0,46,0c-0.8,5.9,0.5,6.9,6.4,5.5c3-0.7,6.1-1.4,9.2-1.9c6.5-1.2,12.9-2.4,19.4-3.6
		C1006.7,292,1015.3,292,1024,292z"/>
	<path class="st1" d="M1424,292c1.9,9.4,3.8,18.9,5.7,28.3c2.7,13.3,5.5,26.6,8.2,39.9c2.4,11.9,4.9,23.7,7.3,35.6
		c2,9.6,3.8,19.2,5.8,28.8c1.7,8.3,3.6,16.5,5.3,24.7c1.9,9.1,3.8,18.2,5.6,27.3c1.6,8.1,3.1,16.3,4.7,24.4
		c2.1,10.4,4.3,20.8,6.4,31.2c3.2,15.3,6.3,30.5,9.5,45.8c3.4,16.6,6.9,33.2,10.3,49.7c3.2,15.8,6.4,31.6,9.7,47.3
		c1.2,5.8,0,8.1-6.2,9.7c-9.5,2.5-19,4.6-28.6,7c-13.7,3.4-27.4,6.8-41.1,10.2c-23.1,5.7-46.2,11.4-69.2,17.2
		c-16.1,4-32.1,8.4-48.3,12.4c-19.2,4.7-38.5,9.1-57.7,13.8c-21.8,5.4-43.5,11-65.3,16.5c-21.1,5.3-42.1,11.2-63.4,15.5
		c-5.4,1.1-11.9-1.9-17.5-4c-20.3-7.8-40.5-16-60.8-24c-25.8-10.2-51.7-20.4-77.5-30.6c-18.4-7.3-36.9-14.5-55.2-21.8
		c-21.3-8.5-42.6-17.1-63.9-25.6c-13.7-5.5-27.6-10.7-41.3-16.1c-7.9-3.1-15.9-5.9-23.6-9.6c-6.9-3.3-13.1,0-19.5,1.1
		c-13.9,2.2-27.7,5.4-41.5,8.2c-17.1,3.4-34.2,6.7-51.3,10c-15.6,3.1-31.3,6.1-46.9,9.2c-14.2,2.8-28.3,5.8-42.5,8.5
		c-13.7,2.6-27.4,5-41.1,7.6c-16,3.1-31.9,6.6-47.9,9.7c-17.6,3.5-35.3,6.8-52.9,10.2c-1.3,0.3-2.6,0.8-3.9,0.9
		c-2.2,0.1-5.3,0.6-6.3-0.6c-1.1-1.3-1-4.5-0.4-6.5c5.5-19,11.3-37.8,16.7-56.8c6.2-21.7,12.1-43.5,18.3-65.2
		c5.5-19.3,11.2-38.5,16.7-57.8c7.7-27,15.1-54,22.8-80.9c7.7-26.8,15.6-53.6,23.3-80.4c6.3-22.2,12.5-44.4,18.7-66.6
		c0.4-1.4,1.1-2.8,1.6-4.2c1,0,2,0,3,0c-3.3,11.8-6.5,23.7-9.8,35.5c-5.4,19.5-10.8,39-16.4,58.5c-5.6,19.5-11.5,38.8-17.1,58.3
		c-4.7,16.4-9.1,33-13.8,49.4c-6.2,21.6-12.5,43.1-18.7,64.6c-4.1,14.4-8.1,28.8-12.2,43.1c-3.9,13.6-7.8,27.1-11.7,40.7
		c-4.1,14.2-8.1,28.4-12.2,42.6c-1.3,4.5-2.6,8.9-3.8,13.4c-0.8,2.8-1.5,5.7-2.5,9.8c7.1-1.2,13.1-2.1,19.1-3.2
		c30.4-5.9,60.7-11.8,91-17.8c20.1-4,40.1-8.2,60.1-12.1c17.4-3.4,34.9-6.4,52.4-9.8c20.1-3.9,40-8.3,60.1-12.3
		c19.4-3.9,38.8-7.9,58.3-11c4.9-0.8,10.6,0.7,15.4,2.5c21.8,8.2,43.4,16.8,65.1,25.4c21.3,8.5,42.5,17.3,63.9,25.7
		c23.3,9.2,46.8,18.1,70.1,27.3c21.2,8.4,42.2,17.1,63.4,25.5c21.8,8.6,43.6,17.3,65.5,25.4c3.3,1.2,7.8,0.2,11.6-0.7
		c27.9-6.9,55.8-14.1,83.7-21.1c21.5-5.3,43-10.3,64.4-15.7c17.4-4.3,34.8-8.9,52.2-13.3c16-4,32-7.7,48-11.7
		c16.1-4,32.2-8.1,48.4-12.1c19-4.7,38.1-9.3,57.2-14c4.8-1.2,9.6-2.6,14.4-3.9c2.8-0.8,3.8-2.3,3.1-5.6
		c-2.6-12.1-4.7-24.4-7.2-36.5c-1.8-8.8-3.8-17.5-5.7-26.3c-1.7-8.1-3.5-16.2-5.1-24.3c-2-9.8-3.9-19.5-5.9-29.3
		c-3.4-16.9-6.8-33.8-10.3-50.7c-3.2-15.4-6.5-30.8-9.7-46.3c-1.9-9.1-3.5-18.2-5.3-27.3c-1.7-8.6-3.7-17.2-5.4-25.8
		c-1.9-9.4-3.6-18.9-5.6-28.3c-1.8-8.6-3.9-17.1-5.7-25.7c-2.5-12.3-4.8-24.7-7.3-37.1c-1-5.2-2.4-10.4-3.4-15.6
		c-0.7-3.4-1-6.9-1.5-10.3C1422,292,1423,292,1424,292z"/>
	<path class="st0" d="M1188,292c5.3,8.2,8.8,16.8,9.1,27c0.9,29.3-10,53.9-29.9,74.7c-10.8,11.2-22.8,21.3-34.4,31.8
		c-1.3,1.2-3.5,1.4-5.3,2c-0.5-1.7-1-3.3-1.4-5c-0.1-0.5,0-1,0-1.5c-1-11.7,2.7-20.6,12.4-28.4c13-10.4,24-23.3,29.2-39.7
		c6.2-19.3,6.6-41.8-13.5-56.8c-1.1-0.8-1.5-2.7-2.2-4.1C1164,292,1176,292,1188,292z"/>
	<path class="st0" d="M739,292c-0.4,1.2-0.6,2.7-1.4,3.6c-11.2,13.4-22.3,26.8-33.8,39.9c-8.9,10.3-18.3,20.2-27.3,30.4
		c-3.2,3.6-7,4.7-11.2,3.8c-8.2-1.8-16.4-4-24.6-6.2c-3.1-0.8-2.8-2.8-1-4.9c5-5.7,10.1-11.4,15.2-17.1c14.7-16.5,29.4-33,44-49.5
		C712.3,292,725.7,292,739,292z"/>
	<path class="st2" d="M1358,292c-7.8,7.2-15.6,14.4-23.4,21.6c-3.4,3.1-7.2,5.9-10.6,9.1c-2.1,2-4,2.1-6.1,0.2
		c-9.1-8-18.3-16-27.3-24.1c-3.1-2.8,0.2-4.7,1.4-6.8C1314,292,1336,292,1358,292z"/>
	<path class="st3" d="M836,292c-0.7,4.2-1.2,8.6-2.3,12.7c-0.3,1.1-2.6,2.5-3.8,2.4c-6.4-0.8-12.8-1.9-19.1-3
		c-5.7-1-11.4-2.3-17.1-3c-6.7-0.9-7.1-1.5-3.4-7.2c0.4-0.5,0.5-1.2,0.7-1.8C806,292,821,292,836,292z"/>
	<path class="st2" d="M852,292c-3.8,3.2-7.6,6.4-11.4,9.7c-0.4-0.2-0.8-0.5-1.3-0.7c0.2-3,0.5-6,0.7-8.9C844,292,848,292,852,292z"
		/>
	<path class="st4" d="M1416.2,484.2c-1.7-0.6-3.3-1.1-4.8-1.8c-26.9-11.9-53.9-23.9-80.8-35.9c-3-1.3-5.5-1.2-8.4,0.6
		c-21.1,13.6-42.4,27-63.6,40.5c-5.2,3.3-10.3,6.8-15.7,9.7c-1.6,0.9-4.9,1-6.2-0.1c-6.3-5.2-12.2-10.8-18.2-16.3
		c-2.3-2.2-1.1-4.1,1-5.8c17.6-14.5,35.3-28.9,52.7-43.6c15.5-13.1,30.9-26.3,46.1-39.8c9.5-8.4,9.4-8.7,20.5-2.6
		c31.9,17.6,63.7,35.4,95.6,53c3.7,2,5.7,4.9,6.3,9c0.4,2.6,0.7,5.4,1.7,7.8c1.7,4.1,0.7,7-2.8,9.4c-6.4,4.5-12.7,9.1-19.1,13.6
		C1419.4,483,1417.8,483.5,1416.2,484.2z"/>
	<path class="st4" d="M610.4,649.2c-1.4-0.9-3.1-1.6-4.3-2.8c-20-19.6-39.9-39.1-59.8-58.8c-5.1-5-9.8-10.4-14.8-15.6
		c-2.3-2.4-2.5-3.9,0.8-5.7c14.8-7.9,29.6-15.9,44.2-24.1c4.3-2.4,7.3-2.3,10.9,1.4c23.2,24.1,46.5,48,69.9,71.9
		c2.8,2.9,3,4.6-0.7,6.8c-14.2,8.3-28.3,16.8-42.5,25.2C613,648.2,611.9,648.5,610.4,649.2z"/>
	<path class="st4" d="M1462.3,556.9c2,9,3.9,16.9,5.6,24.8c0.9,4.4,2,8.8,2.2,13.2c0.1,2.1-0.7,5.1-2.2,6.5
		c-7.2,6.7-14.7,13-22.2,19.3c-23,19.2-46.1,38.2-69.2,57.3c-1.8,1.5-3.6,2.9-5.5,4.3c-7,5.3-7,5.3-13.9,0
		c-7.4-5.7-14.6-11.6-22-17.2c-3.6-2.7-3.2-4.7,0.1-7.3c21.2-16.4,42.4-32.8,63.3-49.5c19.5-15.6,38.7-31.5,58.1-47.3
		C1458.1,559.7,1459.8,558.7,1462.3,556.9z"/>
	<path class="st5" d="M1155.1,610.5c-9.9-0.9-18.3-1.7-26.8-2.5c-2.8-0.2-4.3-1.4-4.2-4.4c0.1-3.3,0-6.6-0.1-9.9
		c-0.1-3.2,1.1-4.4,4.5-4.1c11.1,1,22.2,2.1,33.3,2.3c21.4,0.5,42.2-3.9,61.8-12c23.1-9.5,45.5-20.4,68.5-30.2
		c22.8-9.7,45.8-18.8,68.7-28.1c21.3-8.6,43.6-13,66.4-15.3c6.8-0.7,13.6-0.2,20.5-0.2c0.7,0,1.3,0.1,2,0.4
		c3.3,1.2,6.6,14.8,4.1,17.1c-0.9,0.8-2.7,1.1-4.1,1c-28.4-3-56,1-82.3,11.4c-31.5,12.5-62.5,26.4-93.6,39.8
		c-28.9,12.4-57.8,24.9-88.9,30.8C1174.7,608.6,1164.2,609.4,1155.1,610.5z"/>
	<path class="st0" d="M1288.5,362c-1.5,1.8-2.4,3.4-3.7,4.6c-14.5,12.2-29.1,24.3-43.7,36.4c-14.6,12.1-29.2,24.2-43.8,36.2
		c-0.5,0.4-1,0.9-1.5,1.3c-7.4,5.7-7.5,5.8-14.7-0.3c-5-4.2-9.6-8.8-14.4-13.1c-2.6-2.4-2.7-4.4-0.2-7.1
		c19.3-20.8,38.6-41.8,57.8-62.7c5.7-6.2,11.3-12.7,16.7-19.2c2.1-2.5,3.8-3.1,6.7-1.4c12.2,7.4,24.6,14.7,36.8,22
		C1285.8,359.5,1286.9,360.7,1288.5,362z"/>
	<path class="st4" d="M1024.4,520.2c-9.1,1.3-17.1,2.6-25.1,3.7c-9.2,1.3-18.4,2.8-27.7,3.5c-3,0.2-6.7-0.6-9-2.4
		c-18.3-14.4-36.4-29.1-54.5-43.7c-3.1-2.5-3-4.2,0.6-6.2c16.1-9.1,32.1-18.4,48-27.7c4-2.3,6.8-2.2,9.8,1.5
		c9.6,11.9,19.3,23.7,29.1,35.5c8.2,9.9,16.5,19.6,24.7,29.5C1021.6,515.5,1022.6,517.5,1024.4,520.2z"/>
	<path class="st4" d="M1128.8,676.7c7.6-5.8,14.5-11.1,21.5-16.4c12.2-9.3,24.4-18.5,36.4-27.9c2.7-2.1,4.6-2.2,7.4-0.1
		c12.9,9.7,25.9,19.2,38.9,28.7c3.1,2.3,2.7,3.9-0.2,6.1c-17,13-34,26.1-51,39.2c-6,4.6-6,4.5-12.4-0.1
		c-12.3-8.8-24.7-17.4-37.1-26.2C1131.4,679.3,1130.5,678.3,1128.8,676.7z"/>
	<path class="st2" d="M1385.4,560.5c-7.1,5.3-12.9,9.9-19,14.2c-33.9,24.1-67.9,48.1-101.8,72.1c-3,2.2-5.8,2.6-9.2,0.6
		c-6.5-3.9-13.2-7.5-20.7-11.7c3.5-2.4,6-4.2,8.6-6c25.3-17.2,50.7-34.3,75.9-51.5c13.2-9,26.2-18.2,39.4-27.2
		c1.4-0.9,3.7-1.8,5-1.2C1370.6,552.9,1377.3,556.5,1385.4,560.5z"/>
	<path class="st2" d="M793,605c-7.3,0.1-7.5-0.2-5.8-7.9c0.8-3.6,1.3-7.2,1.7-10.8c0.6-4.5,3.1-6.7,7.6-7c9.3-0.7,18.6-1.4,27.8-2.2
		c20.5-1.8,41.1-3.6,61.6-5.5c10.3-1,20.5-2.4,30.7-3.2c2.1-0.2,5.2,1.1,6.3,2.7c3.2,4.6,5.7,9.8,8.3,14.8c1.6,3.1,1,4.8-2.9,5.2
		c-29.7,3.2-59.5,6.6-89.2,9.7C823.9,602.4,808.7,603.6,793,605z"/>
	<path class="st4" d="M1125.2,555.4c-1.5-6.6,3-9.9,7.3-13.6c18.8-15.9,37.5-32,56-48.2c3.6-3.2,6.3-3,10,0
		c5.7,4.6,11.7,8.8,17.7,13c5.4,3.8,5.6,4.9,0.3,9.1c-12.6,10.1-25.2,20.2-37.9,30.2c-10.5,8.3-21,16.4-31.5,24.7
		c-2.5,2-4.4,2.3-7.1,0.3c-2.8-2.1-6-3.5-9.1-5.2C1126.9,563.5,1123.8,560.7,1125.2,555.4z"/>
	<path class="st5" d="M1123.8,407.1c0,6.9,0.2,13-0.2,19.1c-0.1,1.2-2.4,2.5-3.9,3.2c-8.7,4.4-18.4,7.5-26.1,13.2
		c-20.2,15.1-29.2,35.7-25.8,61.1c0.7,5.4,2.5,10.7,4.2,15.9c1.4,4.3,0.5,6.4-4.2,7.3c-12.4,2.2-12.6,2.4-16.9-9.5
		c-11.3-31.4-5.5-59.8,16.3-84.6c9-10.3,21.6-15.3,34.3-19.6C1108.3,410.8,1115.4,409.3,1123.8,407.1z"/>
	<path class="st2" d="M573.5,430.4c2.4,1.2,4.1,1.8,5.6,2.8c11.7,8,23.3,16,34.9,24.2c3.4,2.4,6.5,3,10.6,1.3
		c24.2-10.2,48.6-20,72.8-30.2c4.2-1.8,5.8,0.1,7.5,3.1c1.9,3.5-0.7,4.8-3.1,6.1c-31.3,17.4-62.6,34.7-93.8,52.1
		c-2.9,1.6-5.1,1.4-7.4-1.2c-13.2-14.5-26.5-28.9-39.9-43.3c-2.9-3.1-3-5.3,0.8-7.5C565.5,435.3,569.6,432.8,573.5,430.4z"/>
	<path class="st4" d="M1380.1,498.4c-14.1,5.5-28.2,10.9-42.2,16.4c-2.8,1.1-5.7,2-8.3,3.4c-8.2,4.4-16.5,4.8-25.5,2.6
		c-13.1-3.2-26.4-5.5-39.6-8.2c-0.4-0.1-0.8-0.5-1.9-1.2c1.1-1.1,1.9-2.3,3-3c20.3-12,40.7-24,61.2-35.8c1.3-0.8,3.7-1,5-0.4
		c15.6,7.6,31,15.4,46.5,23.1c0.9,0.4,1.7,1,2.5,1.5C1380.5,497.4,1380.3,497.9,1380.1,498.4z"/>
	<path class="st4" d="M743.1,572.7c-1.2,1-2.1,2.2-3.3,2.8c-9.6,5.6-19.4,11-29,16.7c-2.8,1.7-4.8,1.5-7-0.9
		c-12.4-13.4-25-26.7-37.4-40.2c-10.9-11.9-21.7-23.9-32.6-35.8c-5.1-5.6-5.2-5.8,1-9.9c10.5-7,10.5-7,19.4,2.3
		c15.3,16,30.6,32,45.9,48c2.5,2.6,4.5,5.9,7.5,8c1.9,1.4,5.2,1.8,7.6,1.2c3.2-0.7,6.2-2.4,9-4.2c3.6-2.3,6.5-1.9,9.3,1.2
		c2.4,2.6,5,4.9,7.4,7.5C741.6,570.2,742.2,571.3,743.1,572.7z"/>
	<path class="st2" d="M899.9,674.9c-3.2-1.1-5.5-1.8-7.8-2.7c-23-9.1-46-18.5-69.1-27.2c-8.5-3.2-10-11-13.3-17.6
		c-0.2-0.5,1.9-3,3.2-3.2c13.7-1.9,27.4-3.5,41-5.1c7.3-0.9,14.5-1.5,21.8-2.5c3.4-0.5,5.3,0.4,6.4,3.8
		c5.6,16.5,11.4,32.9,17.1,49.4C899.7,671,899.6,672.4,899.9,674.9z"/>
	<path class="st0" d="M1002.6,463c-1.2-1-2.2-1.6-2.9-2.4c-6.6-7.9-13.1-15.9-19.7-23.8c-2.7-3.2-2.1-5.4,1.2-7.7
		c16.6-12,33-24.1,49.4-36.3c3-2.2,5.6-2.2,8,0.1c5.6,5.2,11.1,10.5,16.5,15.9c2.5,2.5,1,4.5-1,6.4c-7.7,7.3-15.3,14.7-23.1,22
		c-8.1,7.6-16.4,15.1-24.6,22.6C1005.4,460.9,1004.1,461.9,1002.6,463z"/>
	<path class="st0" d="M1125.9,377.3c0,9.6,0,9.5-8,11c-12.7,2.4-25.4,5.1-38.1,7.2c-2.8,0.4-6.7-0.7-9-2.5
		c-6.3-4.9-11.9-10.6-17.8-16c-2.3-2-1.7-3.6,0.2-5.4c11-10.1,22.2-20.1,33-30.5c3.1-2.9,5-2.6,7.9,0.1c9,8.4,18.1,16.6,27.3,24.7
		C1125.3,369.3,1126.9,373.4,1125.9,377.3z"/>
	<path class="st4" d="M1217.3,735.7c1-1,1.9-2,3.1-2.8c21.6-15.2,43.5-30.1,64.9-45.5c11.8-8.5,9.2-8,20.3,0.6
		c6.8,5.3,13.9,10.2,20.8,15.5c1.5,1.1,2.5,2.8,3.8,4.2c-1.7,1.2-3.2,3-5,3.5c-11.2,3-22.6,5.8-33.9,8.6
		c-22.8,5.6-45.5,11.3-68.3,16.9c-1.6,0.4-3.3,0.6-5,0.8C1217.8,736.8,1217.6,736.3,1217.3,735.7z"/>
	<path class="st2" d="M1042,564.5c7.1,0,13.3-0.8,19.2,0.3c2.8,0.5,5,4.5,7.2,7.2c16,20.2,31.9,40.5,47.9,60.7
		c2.7,3.4,4,6.8,3.3,11.4c-0.8,5.4-0.2,11-0.6,16.4c-0.1,1.6-1.2,3.2-1.9,4.8c-1.6-0.9-3.8-1.3-4.8-2.6
		c-9.4-12.5-18.6-25.1-27.7-37.8c-12.4-17.3-24.7-34.7-37-52C1045.9,570.6,1044.3,568.1,1042,564.5z"/>
	<path class="st0" d="M861.1,348.9c1.2,0.8,2.4,1.3,3.4,2.2c19.7,16.6,39.4,33.2,59.1,49.8c4.6,3.9,4.4,5-0.5,8.5
		c-3.4,2.4-6.8,4.8-10,7.4c-2.8,2.3-5.2,2.3-7.9,0c-7.7-6.6-15.6-13-23.2-19.6c-11.7-10.1-23.2-20.4-34.9-30.5
		c-4.3-3.8-4.4-4.8,0.1-8.2c3.4-2.6,6.9-5.1,10.5-7.6C858.5,350,859.7,349.6,861.1,348.9z"/>
	<path class="st2" d="M1012.2,641c12.3-0.1,12.1,0,14.9,12c4.1,17.6,8.4,35.2,12.7,52.8c1.2,5,0.6,6.1-4.5,6
		c-7.3-0.2-14.6-0.6-21.9-0.9c-3.4-0.1-5-1.8-5.4-5.2c-2.7-19.9-5.4-39.8-8.3-59.7c-0.5-3.6,0.6-5,4-5
		C1006.6,641,1009.4,641,1012.2,641z"/>
	<path class="st2" d="M1025.9,723.5c4.8-0.8,9.6-1.7,14.4-2.3c17.8-2.2,35.7-4.3,53.5-6.6c3.2-0.4,4.9,0.4,6.4,3.2
		c4.9,9.3,10,18.4,15,27.7c2.5,4.6,1.7,5.5-3.3,6.6c-9.6,2.1-18.4,0.1-27.2-3.5c-18.5-7.6-37.1-14.8-55.7-22.1
		c-1.1-0.5-2.2-1.2-3.3-1.8C1025.8,724.3,1025.9,723.9,1025.9,723.5z"/>
	<path class="st0" d="M823,386c1.5-3,3.6-1.8,5.4-0.4c6.5,5.2,13,10.4,19.4,15.7c11.8,9.8,23.5,19.7,35.3,29.4c4.7,3.9,4.8,4.5,0,8
		c-4,2.9-8.3,5.6-12.3,8.5c-2.6,1.9-4.9,1.6-7.2-0.4c-13.9-11.9-27.7-23.9-41.7-35.7c-3.1-2.7-2.5-5.8-1.7-9.2
		C821.1,396.6,822,391.3,823,386z"/>
	<path class="st3" d="M873.3,515c0.7,0,1.4,0.1,2,0c9.5-2.5,13.4,3.9,16.8,10.9c1.5,3,0.8,4.8-2.8,5.1c-13.9,1-27.8,2.1-41.8,3.1
		c-13.4,1-26.9,1.9-40.3,2.8c-1.7,0.1-3.3,0.2-5,0.1c-2.9-0.1-4.4-1.4-3.8-4.4c0-0.2,0.1-0.3,0.1-0.5c1.4-12.8,1.4-12.8,14-14.6
		c0.8-0.1,1.6-0.3,2.5-0.3c19.4-0.6,38.9-1.3,58.3-1.9C873.3,515.2,873.3,515.1,873.3,515z"/>
	<path class="st2" d="M774,307.9c6.8,1.7,12.8,3.1,18.7,4.7c8.4,2.2,16.7,4.5,25,6.7c5.1,1.3,5.5,2.4,2.1,6.4
		c-4.3,5.1-8.6,10.2-12.6,15.4c-2.7,3.5-5.8,4.4-10.1,3.2c-13.6-3.7-27.3-7-41-10.6c-1.8-0.5-3.4-1.7-5.1-2.6c1-1.6,1.9-3.4,3.2-4.7
		c5.1-5.3,10.3-10.5,15.5-15.6C771.1,309.5,772.9,308.6,774,307.9z"/>
	<path class="st2" d="M805.1,470.6c-1.2,6.7-2.1,12.5-3.4,18.1c-0.7,3.1-11.1,11.1-14.1,11c-1.4-0.1-2.9-0.8-4-1.7
		c-9.2-8.4-18.4-16.8-27.5-25.4c-4.1-3.9-3.9-4.7,0.9-7.5c7.9-4.6,15.9-9,23.8-13.6c2.9-1.7,5.4-1.5,7.7,0.8
		c4.9,4.7,9.8,9.4,14.6,14.4C804.4,467.9,804.8,469.8,805.1,470.6z"/>
	<path class="st2" d="M731.7,484.3c-1.2,1.1-2.3,2.3-3.6,3.1c-10.3,6.2-20.6,12.2-30.8,18.3c-2.7,1.6-5.5,3.2-8.1,4.9
		c-2.8,1.8-5.1,1.3-7-1.1c-4.3-5.3-8.7-10.5-12.7-16c-0.6-0.8,0.3-4,1.3-4.6c13.3-7.5,26.8-14.8,40.3-21.9c1.2-0.6,3.6-0.4,4.5,0.4
		c5.1,4.7,10,9.8,14.9,14.7C730.9,482.5,731.1,483.2,731.7,484.3z"/>
	<path class="st2" d="M785.2,583.7c-2.1,8.4-0.7,17.1-5.9,24.3c-1.8,2.5-2.9,4-1.2,7.3c3.5,6.7,0.1,12.7-7.5,14.1
		c-5.6,1-11.1,2.5-16.7,3c-2.6,0.2-5.9-0.7-8-2.1c-4.4-3-8.2-6.8-12.3-10.2c-2.6-2.2-3.1-4.2,0.2-6.2c16.3-10,32.5-20.1,48.8-30.1
		C782.8,583.5,783.2,583.7,785.2,583.7z"/>
	<path class="st2" d="M1051,643c3.6-0.8,6.3,1.4,8.4,5.1c7.7,13.4,15.5,26.7,23.1,40.1c2.6,4.6,2.1,5.3-3,5.8
		c-7.4,0.7-14.8,1.6-22.2,2.7c-3.7,0.5-6.1-0.2-7.1-4.2c-3.1-12.5-5.9-25.2-9.7-37.5C1037.1,644,1039.3,643.8,1051,643z"/>
	<path class="st2" d="M1425.5,383.5c-9.8-5.9-18.3-11-26.8-16.2c-6.8-4.1-13.6-8.4-20.4-12.6c-4.8-3-5.1-4.4-1.2-8.3
		c4.5-4.6,9.2-9.1,13.7-13.8c2.2-2.3,4.2-2.7,7-1c6,3.6,12.2,6.9,18,10.8c1.8,1.2,3.4,3.7,3.9,5.9c2.3,9.3,4.2,18.8,6,28.2
		C1426.1,378.4,1425.6,380.3,1425.5,383.5z"/>
	<path class="st5" d="M1118.5,603.6c-1-0.5-2.1-0.8-2.9-1.5c-18.3-16.7-36.4-33.6-49.8-54.7c-4-6.4-3.4-7.8,4.1-8.4
		c1.5-0.1,3-0.2,4.4-0.6c3.6-0.9,5.7,0.6,7.9,3.5c8.5,11,17.2,21.9,25.9,32.7c0.7,0.9,1.6,1.7,2.6,2.3c10.3,5.9,10,15.4,8.7,25.3
		C1119.6,602.6,1119.1,602.9,1118.5,603.6z"/>
	<path class="st2" d="M1041.2,614.7c-2.8,0.9-4.6,1.6-6.4,2c-8.4,1.4-16.7,2.7-25.1,4.1c-3.4,0.6-6.3-0.1-8.3-3.2
		c-4.7-7.6-9.5-15.3-14.1-22.9c-0.2-0.4-0.1-0.9-0.2-2.1c7.6-0.9,15.1-1.7,22.6-2.6c0.5-0.1,1,0.1,1.5-0.1
		c11.3-3.9,16.1,3.6,20.9,11.6C1034.7,605.9,1037.8,609.9,1041.2,614.7z"/>
	<path class="st0" d="M772.5,350.8c6.9,1.9,13.5,3.4,19.9,5.6c3.3,1.1,3.2,4,0.9,6.4c-7.8,8.6-15.8,17.1-23.5,25.8
		c-2.2,2.5-4.2,3.1-7.4,1.7c-5.5-2.4-11.1-4.4-16.7-6.5c-3.4-1.2-4.3-2.9-1.6-5.7c8.3-8.6,16.7-17.2,25.1-25.7
		C770.1,351.6,771.5,351.3,772.5,350.8z"/>
	<path class="st4" d="M672.4,426.5c-9.7,3.7-18.4,6.9-27,10.2c-3.9,1.5-7.7,3.1-11.7,4.4c-2.8,0.9-6.3,2.6-8.4,1.6
		c-5-2.4-9.5-6-14-9.4c-0.5-0.4,0.1-3.3,0.9-3.9c8.9-6.1,18-12,27.1-17.7c1.5-0.9,4.4-1.1,6-0.3c8.1,3.9,16,8.2,23.9,12.4
		C670,424.1,670.6,424.9,672.4,426.5z"/>
	<path class="st2" d="M715.1,537.9c-0.8-0.3-1.7-0.3-2.3-0.9c-4.2-4-8.4-8-12.3-12.3c-0.5-0.5,0.6-3.4,1.7-4.1
		c7.5-5,15.1-9.6,22.7-14.4c3.5-2.2,6.9-4.6,10.6-6.5c1.5-0.7,4.1-1,5.3-0.1c3.7,2.7,7,6.1,10.5,9.2c2.6,2.3,2.6,4.3-0.5,6.3
		c-11.2,7.2-22.3,14.5-33.4,21.8C716.8,537.3,716,537.5,715.1,537.9z"/>
	<path class="st2" d="M1122,477.1c0,6.5,0.2,13-0.2,19.4c-0.1,1.5-2.1,3.9-3.6,4.3c-6.1,1.5-12.4,2.3-18.6,3.6
		c-3,0.6-4.7-0.6-5.7-3.4c-2.6-7.2-5.2-14.4-7.9-21.5c-1.1-2.9,0.2-4,2.8-4.4c9-1.4,18-2.9,27.1-4.2
		C1122.5,469.9,1123.1,470.6,1122,477.1z"/>
	<path class="st0" d="M712.8,352.5c5.9,1.9,11.1,3.5,16.3,5.2c3.8,1.3,7.4,2.7,11.2,4.1c2.8,1,3.2,3,1.3,5c-4,4.5-7.9,9-12.3,12.9
		c-1.4,1.2-4.5,1.2-6.6,0.7c-9.2-2-18.3-4.4-27.5-6.6c-3.5-0.9-3.9-3.1-1.8-5.5c4.2-4.5,8.5-8.8,13.1-12.9
		C708.3,353.9,710.9,353.4,712.8,352.5z"/>
	<path class="st0" d="M1129.1,347.5c0-11.8-0.1-23.6,0-35.4c0.1-5.3,2-6.7,7-5c5.2,1.8,10.2,4,15.3,6.1c3.2,1.3,3,3.8,1.6,6.2
		c-5.7,10.1-11.5,20.3-17.5,30.3c-1,1.7-3.4,2.6-5.1,3.9c-1-1.9-2.1-3.7-3.1-5.6C1127.9,347.8,1128.5,347.7,1129.1,347.5z"/>
	<path class="st3" d="M794.9,520.6c2.1,7.3-1.7,17.9-7.4,21.3c-7.8,4.7-15.6,9.4-23.4,14.3c-2.7,1.7-4.9,2-6.8-1
		c-0.3-0.4-0.6-0.8-1-1.1c-6.5-5.9-8.2-7.1,2.2-12.9c10.9-6.1,21.6-12.4,32.4-18.5C792.3,521.9,793.6,521.3,794.9,520.6z"/>
	<path class="st0" d="M1125.1,349.9c-2-1.8-4.1-3.5-6-5.4c-3.6-3.4-7.1-7-10.8-10.3c-2.4-2.1-2.7-4.2-0.5-6.3
		c4.8-4.6,9.6-9.1,14.6-13.5c1.9-1.7,5-1.8,5,1c0.2,11.3-0.3,22.6-0.5,33.9C1126.3,349.5,1125.7,349.7,1125.1,349.9z"/>
	<path class="st2" d="M823,386c-1,5.3-2,10.6-2.9,15.9c-0.3-0.1-0.7-0.4-0.8-0.4c-1.7,2.1-3.2,5.8-5,5.9c-4.2,0.2-8.5-1.1-12.5-2.4
		c-0.8-0.3-1.4-4.3-0.6-5.3c5.2-6.3,10.7-12.2,16.2-18.2c1.9-2.1,3.5-1.4,4.4,1.2C822.2,383.9,822.6,385,823,386z"/>
	<path class="st2" d="M1139,653c-1,0.7-2,1.4-3,2c-3.6,2.1-7.2,4.3-11.9,7c0-6.2-0.1-11.3,0.2-16.3c0-0.6,2.8-1.7,3.9-1.3
		c3.3,1.2,6.2,3,9.4,4.4C1139.8,649.8,1140.6,651,1139,653z"/>
	<path class="st3" d="M549.5,672.5c-7.1,1.5-14.1,3-21.2,4.4c-0.2-0.5-0.4-1-0.6-1.5c4.9-3,9.7-6.5,15-8.6c1.7-0.7,4.9,2.2,7.4,3.4
		C549.9,671,549.7,671.8,549.5,672.5z"/>
	<path class="st6" d="M1139,653c1.6-2,0.8-3.2-1.3-4.1c-3.2-1.4-6.2-3.3-9.4-4.4c-1.1-0.4-3.9,0.7-3.9,1.3c-0.3,5-0.2,10.1-0.2,16.3
		c4.7-2.8,8.3-4.9,11.9-7c-3.2,2.6-6.3,5.4-9.6,7.8c-2.3,1.6-4.2,0.4-4.1-2.1c0-5.8,0.5-11.6,1.1-17.4c0.1-0.6,2.8-1.8,3.7-1.4
		c4.3,1.8,8.4,4,12.4,6.3C1142.4,650,1142.4,651.7,1139,653z"/>
	<path class="st6" d="M812,478c0.9,1.2,2,2.2,2.7,3.5c3.4,5.6,2.6,6.9-3.9,7.9c-3.7,0.5-5-0.8-4.5-4.4c0.3-2.1,0.3-4.3,0.8-6.4
		c0.3-1.3,1.1-2.5,1.7-3.8C809.9,475.9,810.9,476.9,812,478c-1.2,0.3-3.1,0.3-3.5,1.1c-0.7,1.3-0.8,3.2-0.7,4.8
		c0.1,1.3,0.6,3.5,1.2,3.6c1.8,0.3,3.8-0.3,5.7-0.5c-0.2-1.3-0.3-2.7-0.7-4C813.5,481.3,812.7,479.7,812,478z"/>
	<path class="st7" d="M1138,376.9c-2.9,2-4.7,3.3-6.5,4.5c-0.8-1.2-2.5-2.7-2.2-3.4c0.6-1.5,2.1-3,3.6-3.5
		C1133.9,374.2,1135.5,375.7,1138,376.9z"/>
	<path class="st8" d="M783.8,622.5c0.6,0.5,1.7,1,1.9,1.8c0.6,1.9,0.9,3.9,1.3,5.8c-1.4-0.3-3.6-0.3-3.9-1c-0.6-1.9-0.4-4-0.5-6.1
		C782.7,622.9,783.2,622.8,783.8,622.5z"/>
	<path class="st5" d="M1120.3,556.6c-1.6-2-2.7-3.1-3.4-4.4c-0.1-0.2,1.5-1.9,1.7-1.7c1.2,0.6,2.4,1.4,3,2.5
		C1121.9,553.4,1121,554.7,1120.3,556.6z"/>
	<path class="st2" d="M812,478c0.7,1.7,1.5,3.3,2,5c0.4,1.3,0.5,2.7,0.7,4c-1.9,0.2-3.8,0.8-5.7,0.5c-0.6-0.1-1.2-2.3-1.2-3.6
		c-0.1-1.6-0.1-3.5,0.7-4.8C808.9,478.3,810.8,478.3,812,478C812,478,812,478,812,478z"/>
</g>
</svg>
