<?xml version="1.0" encoding="utf-8"?>
<!-- Generator: Adobe Illustrator 22.0.0, SVG Export Plug-In . SVG Version: 6.00 Build 0)  -->
<svg version="1.1" id="Calque_1" xmlns="http://www.w3.org/2000/svg" xmlns:xlink="http://www.w3.org/1999/xlink" x="0px" y="0px"
	 viewBox="0 0 1920 1080" style="enable-background:new 0 0 1920 1080;" xml:space="preserve">
<style type="text/css">
	.st0{fill:#204C9B;}
	.st1{fill:#204B9A;}
	.st2{fill:#25509F;}
	.st3{fill:#27519E;}
	.st4{fill:#214D9D;}
	.st5{fill:#4368AC;}
	.st6{fill:#355DA7;}
	.st7{fill:#5676B2;}
	.st8{fill:#4269B0;}
	.st9{fill:#335CA7;}
</style>
<g>
	<path class="st0" d="M811.1,566c1.2-3.9,4.5-3.3,7.4-3.3c25.6,0,51.3,0,76.9,0c15.5,0,31,0.1,46.4,0.2c1.9-0.1,3.8-0.2,5.7-0.2
		c7,0,14,0,21,0c7,0,7.5,0.5,7.5,7.8c0,3.2,0,6.3,0,9.5c-0.1,3,0.9,4.1,4.2,3.4c12.7-2.4,25.5-4.4,38.3-6.6c2.5-0.4,5-0.7,4.6-4.4
		c-1.2-11.4-2.2-22.8-3.3-34.9c-1.5,0.7-2.8,0.9-3.6,1.7c-8.7,8.2-19.7,11.3-31,13.6c-6.8,1.4-13.6,3.1-20.4,4.7
		c-4.7,1.1-8.9,0.1-12.7-2.7c-7.9-5.7-11.3-19.7-5.9-27.8c2.2-3.3,6.2-6.3,10-7.3c14.2-4,28.9-6.5,42.9-11.1
		c5.7-1.8,10.7-7,14.9-11.7c1.7-1.9,0.9-6.6,0.5-10c-1.2-10.2,0.4-12.3,10.8-14.3c12.9-2.4,25.7-5.1,38.6-7.8
		c6.5-1.4,10.5,1.3,11.6,8c3.1,19.9,6.3,39.7,9.3,59.6c2.3,14.9,5.1,29.9,6.3,44.9c0.6,7.5-1.2,15.5-3.3,22.9
		c-1.9,6.3-6.7,11-13.7,12.4c-0.7,0.3-1.3,0.5-2,0.8c-1,0.1-2,0.2-3,0.3c-1,0.1-2,0.1-3,0.2c-2,0.2-4,0.5-6,0.7c-1,0.2-2,0.4-3,0.7
		c-2.3,0.1-4.6,0.3-7,0.4c-1.3,0.2-2.7,0.4-4,0.6c-1,0.1-2,0.2-3,0.3c-1,0.2-2,0.4-3,0.6c-2.3,0.1-4.7,0.3-7,0.4
		c-1.7,0.3-3.3,0.5-5,0.8c-0.7,0.1-1.3,0.1-2,0.2c-0.7,0.1-1.3,0.2-2,0.3c-2.7,0.2-5.3,0.5-8,0.7c-1.7,0.3-3.3,0.5-5,0.8
		c-4,0.4-8,0.8-12,1.2c-1.3,0.3-2.7,0.5-4,0.8c-1.7,0.1-3.3,0.2-5,0.3c-1,0.1-2,0.2-3,0.4c-1.3,0.2-2.7,0.3-4,0.5
		c-1.3,0.3-2.6,0.5-4,0.8c-1.3,0.5-2.6,1-4,1.4c-0.7,1-1.9,1.9-1.9,2.9c-0.1,25.5-0.1,51-0.1,76.4c-1,0-2.1,0-3.1,0
		c-0.5-0.8-1-1.6-1.5-2.3c0-21.6,0-43.2,0.1-64.7c0-1.4,0-2.7,0-4.1c-0.7-0.1-1.4-0.2-2.1-0.3c-0.5,2.4-1,4.7-1.5,7.1
		c-0.8,2.3-1.5,4.7-2.3,7c-0.6,1.3-1.1,2.7-1.7,4c-1.4,4-2.8,8-4.1,12c-0.3,0.7-0.6,1.3-0.9,2c-3,8.4-5.5,17.1-9.1,25.3
		c-4.1,9.3-16.1,13.8-24.9,10.2c-10.3-4.2-15.2-14.3-11-24.9c7.7-19.6,16.1-39,24.3-58.5c3.4-8.1,6.9-16.2,10.1-24.4
		c1.2-2.9,2.9-4.6,6-5.1c3.6-0.6,7.2-1.5,10.7-2.2c6.7-1.4,6.7-1.4,6.1-9.1c-49.8,0-99.7,0-150.1,0c0,42.6,0,85.1,0,128.3
		c-2.8-0.7-6.1,2.6-6.8-2.4c0.3-1.7,0.9-3.5,0.9-5.2c0.1-42.2,0.1-84.4,0-126.5C811.9,569.5,811.4,567.8,811.1,566z"/>
	<path class="st1" d="M1034.5,378.1c22.5,0,40.6,18,40.6,40.5c0,22.3-18.1,40.8-40.3,41.1c-22.3,0.3-41.1-18.4-41.2-40.8
		C993.6,396.2,1011.7,378.1,1034.5,378.1z"/>
	<path class="st2" d="M1082.1,617.9c2-0.2,3.9-0.5,5.9-0.7c1-0.1,2.1-0.2,3.1-0.3c3.2-1,6.5-2,9.7-2.9c0.8,0.1,1.6,0.2,2.5,0.2
		c0.5,1,1,1.9,1.5,2.9c0.1,0.7,0.2,1.4,0.4,2.1c-0.2,2.1-0.4,4.3-0.6,6.4c-0.2,1.6-0.5,3.2-0.5,4.9c-0.1,24.2-0.1,48.4-0.2,72.6
		c-0.6,0.8-1.2,1.5-1.8,2.3c-1.3-0.1-2.7-0.2-4-0.3c-0.2-0.3-0.5-0.7-0.7-1c0-25.8,0-51.6,0-77.8c-2.2-0.1-3.8-0.2-5.3-0.3
		c-1,0.2-2,0.3-3,0.5c-3,0.2-6,0.4-9,0.6c-1.3,0.2-2.7,0.4-4,0.6c-5,0.5-10,0.9-15,1.4c-1.3,0.2-2.7,0.4-4,0.6
		c-14.4,1.5-28.8,3.1-43.2,4.3c-4.7,0.4-6.6,1.6-6.5,6.8c0.3,20,0.1,40,0.1,59.9c0,1.5,0,2.9,0,4.3c-6.8,1.5-6.9,1.4-6.9-4.9
		c0-19.8,0.1-39.6-0.1-59.4c0-1.7-1.8-3.3-2.3-5.1c-0.7-2.6-1.3-5.3-1.4-8c0-0.7,2.1-2,3.3-2.1c22.3-2.2,44.7-4.2,67.1-6.3
		c0.3,0,0.7,0,1,0.1c1-0.2,2.1-0.3,3.1-0.5c3-0.2,5.9-0.4,8.9-0.6C1080.7,618,1081.4,618,1082.1,617.9z"/>
	<path class="st3" d="M859.8,555.5c0.4-0.2,0.7-0.4,1.1-0.6c1-2.8,2-5.6,3-8.4c-0.4-0.1-0.9-0.3-1.3-0.4c-0.5,1.6-0.9,3.2-1.4,4.9
		c-1.3-4-2.6-7.9-4-11.9c-0.9-2.7-2.5-5.4-2.7-8.1c-1.6-27.6-3-55.1-4.5-82.7c-0.6-11.3-1.6-22.6-1.8-33.9c-0.1-3.3,1.4-7.1,3.4-9.8
		c1.1-1.5,5-1.9,7.2-1.2c1.5,0.4,2.9,3.5,3.1,5.4c1.2,16.9,2,33.9,3,50.8c1.4,25.7,2.9,51.5,4.4,77.2c0.2,3.3-0.4,5.4-3.2,8.1
		c-1.9,1.8-0.5,7-0.6,10.6c-0.1,1.1-0.2,2.1-0.3,3.2c-1.6,0-3.3,0-4.9,0C860,557.6,859.9,556.6,859.8,555.5z"/>
	<path class="st4" d="M1110,590.8c-1.2,0.1-2.4,0.3-3.6,0.4c-1.2,0-2.3-0.1-3.5-0.1c-0.3,0-0.6-0.1-0.8-0.2c-0.3-0.3-0.7-0.6-1-0.9
		c0-35.1,0-70.2,0-105.7c3.2,0,6.3,0,9.5,0c0.2,0.4,0.6,0.8,0.6,1.3c0,34.8-0.1,69.6-0.1,104.4
		C1110.6,590.3,1110.3,590.5,1110,590.8z"/>
	<path class="st5" d="M811.1,566c0.3,1.7,0.8,3.5,0.8,5.2c0,42.2,0,84.4,0,126.5c0,1.7-0.6,3.5-0.9,5.2c-0.1-1.3-0.3-2.6-0.3-3.9
		c0-43,0-86.1,0-129.1C810.7,568.6,811,567.3,811.1,566z"/>
	<path class="st5" d="M947.6,562.7c-1.9,0.1-3.8,0.2-5.7,0.2c-0.7-0.9-1.3-2.4-2.2-2.6c-9.9-2.1-19.8-4.4-29.8-5.8
		c-3.1-0.4-6.5,1.8-9.9,2.7c-1.5,0.4-3.1,0.6-4.9,0.1c4.1-4,9.1-7.1,14.5-6.4c11.5,1.6,22.8,4.5,34.2,6.4
		C947.7,557.9,946.7,560.7,947.6,562.7z"/>
	<path class="st6" d="M973,705.3c0-25.5,0-51,0.1-76.4c0-1,1.2-1.9,1.9-2.9c0.1,25.4,0.1,50.8,0.1,76.2
		C975.1,703.2,973.7,704.3,973,705.3z"/>
	<path class="st7" d="M1102.8,591.1c1.2,0,2.3,0.1,3.5,0.1c-1,7.7-2,15.3-3,23c-0.8-0.1-1.6-0.2-2.5-0.2
		C1101.5,606.3,1102.2,598.7,1102.8,591.1z"/>
	<path class="st8" d="M864.9,558.7c0.1-1.1,0.2-2.1,0.3-3.2c5.5,0.1,11,0.1,16.6,0.2c0.4,0,0.7,0,1.1,0c1,0.5,2,1,2.9,1.5
		c-1,0.6-2,1.7-3,1.7C876.9,558.9,870.9,558.8,864.9,558.7z"/>
	<path class="st8" d="M859.8,555.5c0.1,1.1,0.2,2.1,0.3,3.2c-4.8,0.1-9.5,0.3-14.3,0.2c-0.9,0-1.9-1.2-2.8-1.8c1-0.6,2-1.6,3-1.6
		C850.5,555.3,855.2,555.4,859.8,555.5z"/>
	<path class="st6" d="M964.8,641c0.5-2.4,1-4.7,1.5-7.1c0.7,0.1,1.4,0.2,2.1,0.3c0,1.4,0,2.7,0,4.1C967.2,639.1,966,640,964.8,641z"
		/>
	<path class="st8" d="M861.1,551c0.5-1.6,0.9-3.2,1.4-4.9c0.4,0.1,0.9,0.3,1.3,0.4c-1,2.8-2,5.6-3,8.4
		C860.9,553.6,861,552.3,861.1,551z"/>
	<path class="st6" d="M1011,620.7c1.7-0.3,3.3-0.5,5-0.8C1014.3,620.1,1012.6,620.4,1011,620.7z"/>
	<path class="st6" d="M1028,618.7c1.7-0.3,3.3-0.5,5-0.8C1031.3,618.2,1029.6,618.4,1028,618.7z"/>
	<path class="st6" d="M979,624.6c1.3-0.3,2.6-0.5,4-0.8C981.6,624,980.3,624.3,979,624.6z"/>
	<path class="st6" d="M995,622.6c1.3-0.3,2.7-0.5,4-0.8C997.6,622.1,996.3,622.4,995,622.6z"/>
	<path class="st6" d="M1046,616.6c1.3-0.2,2.7-0.4,4-0.6C1048.6,616.2,1047.3,616.4,1046,616.6z"/>
	<path class="st9" d="M1076,627.6c1.3-0.2,2.7-0.4,4-0.6C1078.7,627.2,1077.3,627.4,1076,627.6z"/>
	<path class="st9" d="M1057,629.6c1.3-0.2,2.7-0.4,4-0.6C1059.6,629.2,1058.3,629.4,1057,629.6z"/>
	<path class="st6" d="M960.9,652c0.6-1.3,1.1-2.7,1.7-4C962,649.3,961.4,650.6,960.9,652z"/>
	<path class="st9" d="M1089,626.4c1-0.2,2-0.3,3-0.5C1091,626.1,1090,626.2,1089,626.4z"/>
	<path class="st6" d="M1066,614.1c1-0.1,2-0.1,3-0.2C1068,614,1067,614.1,1066,614.1z"/>
	<path class="st6" d="M1057,615.5c1-0.2,2-0.4,3-0.7C1059,615.1,1058,615.3,1057,615.5z"/>
	<path class="st6" d="M1040,617.5c1-0.2,2-0.4,3-0.6C1042,617.1,1041,617.3,1040,617.5z"/>
	<path class="st7" d="M1091.1,616.9c-1,0.1-2.1,0.2-3.1,0.3C1089.1,617.1,1090.1,617,1091.1,616.9z"/>
	<path class="st7" d="M1071.1,618.6c-1,0.2-2.1,0.3-3.1,0.5C1069.1,619,1070.1,618.8,1071.1,618.6z"/>
	<path class="st6" d="M986.9,623.3c1-0.1,2-0.2,3-0.4C989,623.1,988,623.2,986.9,623.3z"/>
	<path class="st6" d="M968.4,703c0.5,0.8,1,1.6,1.5,2.3C969.4,704.5,968.9,703.7,968.4,703z"/>
	<path class="st7" d="M1105.2,619.1c-0.1-0.7-0.2-1.4-0.4-2.1C1105,617.7,1105.1,618.4,1105.2,619.1z"/>
	<path class="st6" d="M1023.9,619.2c0.7-0.1,1.3-0.2,2-0.3C1025.3,619,1024.6,619.1,1023.9,619.2z"/>
	<path class="st6" d="M1072,613.6c0.7-0.3,1.3-0.5,2-0.8C1073.3,613.1,1072.6,613.4,1072,613.6z"/>
	<path class="st7" d="M1082.1,617.9c-0.7,0.1-1.4,0.1-2.1,0.2C1080.7,618,1081.4,618,1082.1,617.9z"/>
	<path class="st6" d="M955.8,665.9c0.3-0.7,0.6-1.3,0.9-2C956.4,664.6,956.1,665.3,955.8,665.9z"/>
	<path class="st9" d="M1102,705.3c0.6-0.8,1.2-1.5,1.8-2.3C1103.3,703.8,1102.7,704.5,1102,705.3z"/>
	<path class="st7" d="M1110,590.8c0.3-0.3,0.7-0.5,1-0.8C1110.6,590.3,1110.3,590.5,1110,590.8z"/>
	<path class="st7" d="M1101,590c0.3,0.3,0.7,0.6,1,0.9C1101.7,590.6,1101.4,590.3,1101,590z"/>
	<path class="st3" d="M882.9,555.6c-0.4,0-0.7,0-1.1,0C882.2,555.6,882.5,555.6,882.9,555.6z"/>
	<path class="st9" d="M1097.3,704c0.2,0.3,0.5,0.7,0.7,1C1097.8,704.7,1097.5,704.4,1097.3,704z"/>
</g>
</svg>
