<?xml version="1.0" encoding="utf-8"?>
<!-- Generator: Adobe Illustrator 22.0.0, SVG Export Plug-In . SVG Version: 6.00 Build 0)  -->
<svg version="1.1" id="Calque_1" xmlns="http://www.w3.org/2000/svg" xmlns:xlink="http://www.w3.org/1999/xlink" x="0px" y="0px"
	 viewBox="0 0 1920 1080" style="enable-background:new 0 0 1920 1080;" xml:space="preserve">
<style type="text/css">
	.st0{fill:#36D3D1;}
	.st1{fill:#272949;}
	.st2{fill:#224D9A;}
	.st3{fill:#5C5E76;}
	.st4{fill:#75E0DF;}
	.st5{fill:#FCFCFD;}
	.st6{fill:#234E9B;}
	.st7{fill:#234D9B;}
	.st8{fill:#27519C;}
	.st9{fill:#27519D;}
</style>
<g>
	<path class="st0" d="M814,585c0.7-1.1,1.5-2,2.1-3.2c4.5-9.5,14.2-14.2,23.9-11.5c8.7,2.4,15.5,11.8,14.7,20.3
		c-1,10.5-8.6,18.2-19,19.2c-7.3,0.7-15.8-4.3-19.1-11.2c-0.7-1.6-1.7-3-2.6-4.5C814,591,814,588,814,585z"/>
	<path class="st1" d="M1109,438c-3.1,4.6-5.7,9.4-11.7,11c-8.3,2.3-17.3-2-20.1-10c-2.7-7.7,1.5-16.1,9.4-19.4
		c1.1-0.5,2.2-1.1,3.3-1.6c2,0,4,0,6,0c6,2.2,10.4,6.1,13,12C1109,432.7,1109,435.3,1109,438z"/>
	<path class="st2" d="M872.3,541.7c0-59.7,48.7-108.3,108.4-108.3c59.7,0,108.3,48.7,108.3,108.4c0,59.8-48.6,108.3-108.4,108.3
		C921,650,872.4,601.4,872.3,541.7z M1071.1,541.6c0-50.3-40.1-90.4-90.5-90.4c-50.2,0-90.5,40.2-90.6,90.4
		c0,50.6,40.2,90.7,90.8,90.6C1031.3,632.1,1071.2,592,1071.1,541.6z"/>
	<ellipse class="st3" cx="868.1" cy="440.5" rx="45.5" ry="0.3"/>
	<path class="st4" d="M824.3,466.2c21.3,0,42.5,0,63.8,0c0,0.2,0,0.3,0,0.5c-21.3,0-42.6,0-63.9,0
		C824.2,466.5,824.2,466.4,824.3,466.2z"/>
	<path class="st5" d="M1071.1,541.6c0,50.5-39.8,90.5-90.2,90.6c-50.6,0.1-90.8-40-90.8-90.6c0-50.2,40.3-90.4,90.6-90.4
		C1031,451.1,1071.1,491.2,1071.1,541.6z M999.5,529c-0.7,5.7-1.6,11-2,16.2c-0.2,2.9-0.4,6.4,1,8.6c8,12.8,16.5,25.4,24.9,38
		c1.6,2.4,3.5,4.4,6.5,2.6c3-1.8,2.3-4.4,0.8-6.9c-4.6-8.3-8.5-17-13.8-24.8c-5.7-8.4-5.6-16.8-3.7-24.6c5.7,3.6,11.5,7.3,17.5,10.9
		c2.8,1.7,6,2.1,7.9-1.2c1.7-3-0.2-5.4-3-6.9c-1-0.6-1.9-1.3-3-1.8c-7-3.1-11.9-8.2-15-15.2c-0.6-1.4-1.5-2.6-2.3-3.9
		c-3.2-5.3-10.7-8-15.9-4.9c-8.7,5.2-18.3,9.5-22,20.5c-1.9,5.8-8.2,5.9-11.9,0.9c-1.9-2.5-3.7-5.1-5.6-7.7
		c-3.6-4.9-9.7-7.4-14.9-4.7c-9.5,4.9-18.6,10.7-22,21.8c-0.5,1.5,0.5,4.6,1.7,5.3c1.3,0.7,4.2,0.1,5.6-1c1.4-1.1,2.1-3.3,2.7-5.2
		c1.6-5,5.3-7.3,10.4-8.9c-0.4,3.5-1,6.6-1.1,9.7c-0.1,3.9-1,8.6,0.7,11.7c6.5,11.8,13.9,23.1,21.2,34.4c0.8,1.3,4.2,2.4,5.3,1.7
		c1.6-1,2.6-3.5,3-5.6c0.3-1.2-1-2.7-1.6-4.1c-4.3-8.2-8.3-16.7-13.2-24.6c-3.7-6-1.4-11.6-1.4-18c9.8,8,9.8,8,19.5,7
		c0.3,0,0.7-0.1,1-0.1c4.7,0.8,6.9-1.9,8.4-5.8C987.6,536,991.4,530.7,999.5,529z M1009.3,509.1c6.1,0.1,11.3-4.9,11.3-10.9
		c0-5.7-5-10.7-10.9-10.9c-5.9-0.1-10.8,4.7-10.9,10.7C998.8,504.1,1003.4,509,1009.3,509.1z M954.4,516.1c5.5,0,9.8-4.2,9.8-9.7
		c0.1-5.5-4.1-9.9-9.5-10.1c-5.6-0.2-10.3,4.4-10.2,10C944.5,511.8,948.9,516.1,954.4,516.1z M999.2,563.5c-3,8.3-5.9,16.7-9.1,25
		c-1.1,2.8-2.6,5.4,1.3,7c3.5,1.4,5.7-0.5,7.1-3.6c2.2-4.9,4.5-9.7,6.5-14.6c0.5-1.2,0.5-3,0-4
		C1003.1,569.7,1000.8,566.3,999.2,563.5z M942.8,567.1c-2.6,7.3-5.1,14.5-7.9,21.7c-1.1,2.8-1.8,5.3,1.5,6.7
		c3.2,1.4,5.5-0.2,6.7-3.2c1.7-4.1,3.5-8.3,5-12.5c0.4-1.1,0.4-2.6-0.1-3.6C946.3,572.9,944.3,569.7,942.8,567.1z"/>
	<path class="st6" d="M999.5,529c-8.1,1.7-11.8,6.9-14.3,13.4c-1.5,4-3.7,6.6-8.4,5.8c-0.3-0.1-0.7,0.1-1,0.1
		c-9.7,1.1-9.7,1.1-19.5-7c0.1,6.5-2.3,12,1.4,18c4.9,7.9,8.9,16.4,13.2,24.6c0.7,1.3,1.9,2.9,1.6,4.1c-0.5,2.1-1.4,4.6-3,5.6
		c-1.1,0.7-4.5-0.4-5.3-1.7c-7.3-11.3-14.7-22.6-21.2-34.4c-1.7-3.1-0.8-7.7-0.7-11.7c0.1-3.1,0.7-6.2,1.1-9.7
		c-5.1,1.6-8.8,3.9-10.4,8.9c-0.6,1.9-1.3,4.1-2.7,5.2c-1.4,1.1-4.2,1.8-5.6,1c-1.2-0.7-2.2-3.7-1.7-5.3c3.4-11.1,12.4-16.9,22-21.8
		c5.2-2.7,11.2-0.2,14.9,4.7c1.9,2.5,3.7,5.1,5.6,7.7c3.7,5,9.9,4.9,11.9-0.9c3.7-11.1,13.3-15.3,22-20.5c5.2-3.1,12.7-0.4,15.9,4.9
		c0.8,1.3,1.7,2.5,2.3,3.9c3.1,7,8,12.1,15,15.2c1.1,0.5,2,1.2,3,1.8c2.8,1.5,4.7,3.9,3,6.9c-1.8,3.3-5,2.9-7.9,1.2
		c-5.9-3.6-11.8-7.4-17.5-10.9c-1.9,7.8-2,16.2,3.7,24.6c5.3,7.8,9.2,16.5,13.8,24.8c1.4,2.6,2.2,5.1-0.8,6.9
		c-3.1,1.8-4.9-0.2-6.5-2.6c-8.3-12.6-16.8-25.2-24.9-38c-1.4-2.2-1.2-5.7-1-8.6C997.8,540,998.7,534.7,999.5,529z"/>
	<path class="st2" d="M1009.3,509.1c-5.9-0.1-10.5-5-10.5-11.1c0-6,4.9-10.8,10.9-10.7c5.9,0.1,10.9,5.1,10.9,10.9
		C1020.6,504.2,1015.4,509.2,1009.3,509.1z"/>
	<path class="st7" d="M954.4,516.1c-5.5,0-9.8-4.3-9.9-9.7c-0.1-5.6,4.6-10.2,10.2-10c5.4,0.2,9.6,4.6,9.5,10.1
		C964.1,512,959.9,516.2,954.4,516.1z"/>
	<path class="st8" d="M999.2,563.5c1.7,2.7,3.9,6.2,5.8,9.9c0.6,1.1,0.5,2.9,0,4c-2,4.9-4.3,9.7-6.5,14.6c-1.4,3.1-3.6,5-7.1,3.6
		c-3.9-1.5-2.4-4.2-1.3-7C993.3,580.2,996.2,571.8,999.2,563.5z"/>
	<path class="st9" d="M942.8,567.1c1.5,2.6,3.5,5.8,5.2,9.1c0.5,1,0.5,2.5,0.1,3.6c-1.5,4.2-3.2,8.3-5,12.5c-1.3,3-3.6,4.6-6.7,3.2
		c-3.3-1.4-2.5-4-1.5-6.7C937.7,581.7,940.2,574.4,942.8,567.1z"/>
</g>
</svg>
