<?xml version="1.0" encoding="utf-8"?>
<!-- Generator: Adobe Illustrator 22.0.0, SVG Export Plug-In . SVG Version: 6.00 Build 0)  -->
<svg version="1.1" id="Calque_1" xmlns="http://www.w3.org/2000/svg" xmlns:xlink="http://www.w3.org/1999/xlink" x="0px" y="0px"
	 viewBox="0 0 1920 1080" style="enable-background:new 0 0 1920 1080;" xml:space="preserve">
<style type="text/css">
	.st0{fill:#91A6CD;}
	.st1{fill:#34D3D1;}
	.st2{fill:#252847;}
	.st3{fill:#2A2D4C;}
	.st4{fill:#8AA1CA;}
	.st5{fill:#98ACD0;}
	.st6{fill:#95AACF;}
	.st7{fill:#94A9CE;}
	.st8{fill:#8DA3CB;}
	.st9{fill:#4AD7D5;}
	.st10{fill:#96AACF;}
	.st11{fill:#728DBF;}
	.st12{fill:#FBFBFC;}
	.st13{fill:#8EA4CC;}
	.st14{fill:#FDFDFE;}
	.st15{fill:#8BA1CA;}
	.st16{fill:#738EBF;}
	.st17{fill:#92A7CD;}
	.st18{fill:#6F8BBD;}
	.st19{fill:#A3B5D5;}
	.st20{fill:#6E8ABD;}
	.st21{fill:#9DB0D2;}
</style>
<g>
	<path class="st0" d="M936,649c-1-0.6-1.8-1.6-2.9-1.8c-3.7-0.9-7.4-1.5-11.1-2.2c-0.3-1.3-1-2.6-0.9-3.8c0.4-5.8,0-11-6.5-13.3
		c-0.4-0.1-0.4-1.2-0.6-1.8c2.8,0.3,5.6,1,8.3,0.9c1.2-0.1,3.5-1.6,3.4-2.5c-0.4-9.1,2.1-18.5-1.8-27.4c14,0,28,0,42,0
		c0.7,5.3,1.8,10.6,1.9,15.9C968.2,626,968,626,981,624c-1.8,1.4-3.5,3.1-5.4,4.1c-6.2,3.3-7.8,10.5-3.4,16.1
		c-4.3,1-8.6,1.9-12.9,2.9c-1.5,0.4-2.8,1.2-4.2,1.8C948.7,649,942.3,649,936,649z"/>
	<path class="st1" d="M1089,433c3.8,1.9,7.9,3.2,11.3,5.7c7.9,5.8,10.5,16.6,6.8,25.9c-3.6,8.9-13.2,15.1-22.4,14.3
		c-10-0.8-18.5-8.1-20.6-17.5c-2.7-11.8,3.9-23.3,15.4-27.1c1.2-0.4,2.3-0.9,3.5-1.4C1085,433,1087,433,1089,433z"/>
	<path class="st2" d="M806,590c0.7-1.2,1.5-2.4,2.1-3.7c3.8-7.6,12-11.3,20.6-9.3c7.4,1.7,13.4,9.5,13.3,17.3
		c-0.1,8.2-5.8,15-14.1,17.1c-7.6,1.9-16-2-19.7-9.2c-0.7-1.4-1.5-2.8-2.2-4.2C806,595.3,806,592.7,806,590z"/>
	<ellipse class="st3" cx="1080.9" cy="600.5" rx="51" ry="0.7"/>
	<path class="st0" d="M928.1,447.8c0.2-0.3,0.4-0.4,0.7-0.3c1.7,2.2,3.1,2.4,4.2-0.5c12.4-2.4,24.7-1.2,36.8,1.8
		c3.2,0.8,6.2,2,9.3,3c-3.9,5.2-1.8,10.8-1.1,16.3c-2.6-0.4-5.3-0.5-7.8-1.2c-3.9-1.1-5.3,0.3-5.2,4.1c0.3,9.6,0.6,19.2,0.7,28.9
		c0,0.8-1.1,1.5-1.7,2.3c-6.9-0.6-13.9-1.2-20.8-1.8c-3.4-1.4-6.7-3.7-10.2-4c-4-0.3-5.1-1.5-4.9-5.3c0.3-4.8,0.1-9.6,0.1-14.4
		c0-10.2,0-10.2-10-9.6c1.7-2.4,4.7-4.9,4.7-7.4C922.8,454.6,923.3,450.5,928.1,447.8z"/>
	<path class="st4" d="M1019.1,477.7c11.5,11.5,19.2,25.2,23.9,40.6c7.5,24.5,5.3,48.6-5.5,71.6c-5.4,11.4-12.5,21.8-22.3,30.1
		c-2.6,0.1-3.4-1.3-3.3-3.7c0.1-5.1,0-10.3,0-15.4c0.9-1.4,1.7-2.8,2.7-4.2c16.1-22.7,20.6-47.5,12.5-74.1
		c-2.6-8.6-7.4-16.5-11.2-24.8c-0.2-1.3-0.5-2.5-0.7-3.8c-0.7-4.4-1.8-8.9-1.8-13.3C1013.5,479.9,1017.2,478.8,1019.1,477.7z"/>
	<path class="st5" d="M873.9,617.2c-12.9-12.6-21.3-27.9-25.8-45.1c-8.1-31.4-1.4-60.1,17.4-86c4.3-5.9,10.2-10.7,15.4-16.1
		c-0.7,8-1.3,16-2,24c-2,3.2-4.2,6.3-6.1,9.6c-12.2,21.3-15.6,43.9-8.2,67.5c2.4,7.5,6.2,14.6,9.3,21.9
		C874,601.1,874,609.1,873.9,617.2z"/>
	<path class="st6" d="M873.9,617.2c0-8.1,0-16.1,0.1-24.2c3.3,4,6.7,8,10,12c8.3,9.4,18.8,15.7,30,21c0.2,0.6,0.2,1.7,0.6,1.8
		c6.5,2.4,6.9,7.6,6.5,13.3c-0.1,1.3,0.6,2.6,0.9,3.8C903.3,640.4,887.2,631.2,873.9,617.2z"/>
	<path class="st7" d="M879,494c0.7-8,1.3-16,2-24c13.8-11.5,29.1-19.5,47-22.2c-4.7,2.6-5.3,6.8-5.3,11.8c0,2.5-3,4.9-4.7,7.4
		c-4.3,2-8.7,4-13,6c-6.7,5-13.3,10-20,15C883,490,881,492,879,494z"/>
	<path class="st8" d="M1012,601c0,5.1,0.1,10.3,0,15.4c-0.1,2.5,0.7,3.8,3.3,3.7c-12.3,11.7-26.3,20.4-43.1,24.1
		c-4.4-5.6-2.8-12.8,3.4-16.1c2-1.1,3.6-2.7,5.4-4.1c11.1-4.1,19.9-11.6,28-20C1010,603,1011,602,1012,601z"/>
	<path class="st8" d="M1019.1,477.7c-2,1.1-5.6,2.1-5.6,3.2c0,4.4,1.1,8.9,1.8,13.3c0.2,1.3,0.5,2.5,0.7,3.8c-2.7-2.7-5.3-5.3-8-8
		c-5.3-4.7-10.7-9.3-16-14c-4.7-2.7-9.3-5.3-14-8c-0.7-5.5-2.8-11.1,1.1-16.3c10.9,3.1,20.4,9,29.2,15.9
		C1012.1,470.8,1015.5,474.4,1019.1,477.7z"/>
	<path class="st9" d="M1015.2,628.3c23.4,0,46.8,0,70.1,0c0,0.2,0,0.3,0,0.5c-23.4,0-46.8,0-70.3,0
		C1015.2,628.6,1015.2,628.4,1015.2,628.3z"/>
	<path class="st7" d="M933,447c-1.1,2.9-2.5,2.7-4.2,0.5C930.2,447.3,931.6,447.2,933,447z"/>
	<path class="st10" d="M992,476c5.3,4.7,10.7,9.3,16,14c-0.3,1.2-1,2.5-1,3.7c-0.1,35.5-0.1,71,0,106.4c0,1.3,1.2,2.6,1.9,3.9
		c-8.1,8.4-16.9,15.9-28,20c-13,2-12.8,2-13.1-11.1c-0.1-5.3-1.2-10.6-1.9-15.9c6.3,0,12.6,0,19,0c3.8,0,6-1.8,6-5.7
		c0-9,0.1-18-0.1-27c0-1.1-1.9-2.2-2.9-3.3c-0.4-1.3-0.7-2.6-1.1-3.9c1.6-0.1,3.3-0.3,4.9-0.1c4.2,0.4,5.4-1.5,5.3-5.5
		c-0.2-9.6,0.1-19.2-0.2-28.7c0-1.6-1.8-3.2-2.8-4.8c-0.7-1.2-1.5-2.4-2.2-3.5c0.2-3.1-1.7-3.7-4.1-3.4c-4.8,0.6-6-1.7-5.8-6.1
		c0.3-6,0.1-11.9,0.1-17.9c0-4.2,0-8.4,0-12.8C985.9,474.9,989,475.5,992,476z"/>
	<path class="st8" d="M885,488c6.7-5,13.3-10,20-15c1,2.2,2.8,4.5,2.9,6.7c0.3,9.6,0.1,19.1,0.1,28.7c4.6,1.1,9.7-0.2,11,5.6
		c-4.7,0-9.3,0-14,0c-1.3-0.9-3.4-2.7-3.8-2.4c-2.3,1.7-5.8,3.9-5.9,6c-0.6,11.4-0.3,22.8-0.1,34.2c0,0.7,1.9,1.3,2.9,2
		c1,0,1.9,0.1,2.9,0.1c1.1,1.1,2.2,2.2,3.3,3.3c-0.1,10.7-0.4,21.5-0.2,32.2c0,1.3,1.9,2.6,3,4c2,1.2,4,3.1,6.2,3.5
		c3.5,0.6,7.2,0.2,10.8,0.2c3.9,8.9,1.4,18.2,1.8,27.4c0,0.8-2.2,2.4-3.4,2.5c-2.8,0.1-5.5-0.5-8.3-0.9c-11.2-5.3-21.7-11.6-30-21
		c1.6-0.1,3.1-0.3,4.8-0.4c0.1-1.9,0.2-3.2,0.2-4.5c0-35.3-0.1-70.7,0.1-106C889.1,490.5,887.8,489.1,885,488z"/>
	<path class="st11" d="M924,597c-3.6,0-7.3,0.4-10.8-0.2c-2.2-0.4-4.1-2.3-6.2-3.5c24.7-0.1,49.3-0.1,74-0.2c5.7,0,6.7-1,6.7-6.7
		c0.1-8.5,0.1-17,0.2-25.5c1,1.1,2.9,2.2,2.9,3.3c0.2,9,0.2,18,0.1,27c0,3.9-2.2,5.7-6,5.7c-6.3,0-12.6,0-19,0
		C952,597,938,597,924,597z"/>
	<path class="st12" d="M905,514.1c4.7,0,9.3,0,14,0c1.3,0,2.7,0,4,0c0.7-0.7,1.5-1.4,2.2-2.1c0-0.8,0.1-1.7,0.1-2.5
		c0.3-7.1,1.9-8.6,9-8.7c2.9,0,5.9-0.4,8.8-0.6c6.9,0.6,13.9,1.2,20.8,1.8c1,2.6,2.6,5.1,2.8,7.7c0.3,3.5,1.5,4.6,4.9,4.5
		c6.8-0.1,13.5,0.2,20.3,0.3c0.7,1.2,1.5,2.4,2.2,3.5c0,9.9-0.4,19.8,0,29.7c0.2,4.8-1.5,6-5.9,5.7c-3.3-0.3-6.6,0.1-9.9,0.2
		c-1.2-0.6-2.4-1.2-3.6-1.8c-0.8-0.9-1.5-2.4-2.4-2.5c-2.6-0.3-5.2-0.1-8.1-0.1c0.6,4-1.3,4.6-4.3,4.6c-9.6-0.1-19.2,0-28.8,0.1
		c-1-0.3-2.1-0.6-3.1-0.8c-0.4-1.3-0.8-3.6-1.3-3.6c-3-0.1-8.5-0.3-8.7,0.7c-1.3,4.6-4.5,2.9-7.1,3.2c-3.3,0.3-6.5,0.4-9.8,0.6
		c-1,0-1.9-0.1-2.9-0.1c0-10.8,0-21.6,0-32.4C898.1,514.7,898.3,514.5,905,514.1z M933,514.1c9.5,0,19,0,28.9,0
		c-0.1-2.6-0.2-4.4-0.3-6.2c-0.9-1-1.8-2.9-2.8-2.9c-8.6-0.2-17.2-0.1-25.9-0.1c-3.2,0-3.3,2.2-3.1,4.4
		C930,511.3,928.4,514.8,933,514.1z"/>
	<path class="st13" d="M923,514.1c-1.3,0-2.7,0-4,0c-1.3-5.8-6.4-4.5-11-5.6c0-9.6,0.2-19.1-0.1-28.7c-0.1-2.3-1.9-4.5-2.9-6.7
		c4.3-2,8.7-4,13-6c10-0.7,10-0.7,10,9.6c0,4.8,0.2,9.6-0.1,14.4c-0.2,3.8,0.9,4.9,4.9,5.3c3.5,0.3,6.8,2.6,10.2,4
		c-2.9,0.2-5.9,0.5-8.8,0.6c-7.1,0.1-8.7,1.6-9,8.7c0,0.8-0.1,1.7-0.1,2.5C924.5,512.7,923.7,513.4,923,514.1z"/>
	<path class="st7" d="M991.9,514.5c-6.8-0.1-13.5-0.3-20.3-0.3c-3.3,0-4.6-1.1-4.9-4.5c-0.2-2.6-1.8-5.1-2.8-7.7
		c0.6-0.8,1.8-1.5,1.7-2.3c-0.1-9.6-0.4-19.2-0.7-28.9c-0.1-3.8,1.3-5.2,5.2-4.1c2.5,0.7,5.2,0.8,7.8,1.2c4.7,2.7,9.3,5.3,14,8
		c-3-0.5-6.1-1.1-10-1.8c0,4.4,0,8.6,0,12.8c0,6,0.2,11.9-0.1,17.9c-0.2,4.4,1,6.7,5.8,6.1C990.1,510.7,992.1,511.4,991.9,514.5z"/>
	<path class="st5" d="M1009,604c-0.7-1.3-1.9-2.6-1.9-3.9c-0.1-35.5-0.1-71,0-106.4c0-1.2,0.6-2.5,1-3.7c2.7,2.7,5.3,5.3,8,8
		c3.8,8.2,8.6,16.2,11.2,24.8c8.1,26.6,3.6,51.4-12.5,74.1c-1,1.3-1.8,2.8-2.7,4.2C1011,602,1010,603,1009,604z"/>
	<path class="st4" d="M885,488c2.8,1.1,4.1,2.5,4.1,6.1c-0.2,35.3-0.1,70.7-0.1,106c0,1.3-0.1,2.6-0.2,4.5c-1.7,0.1-3.2,0.3-4.8,0.4
		c-3.3-4-6.7-8-10-12c-3.1-7.3-6.9-14.3-9.3-21.9c-7.4-23.6-4-46.1,8.2-67.5c1.9-3.3,4.1-6.4,6.1-9.6C881,492,883,490,885,488z"/>
	<path class="st14" d="M987.9,561c0,8.5-0.1,17-0.2,25.5c-0.1,5.7-1,6.7-6.7,6.7c-24.7,0.1-49.3,0.1-74,0.2c-1-1.3-3-2.6-3-4
		c-0.1-10.7,0.1-21.5,0.2-32.2c4.1,0,8.3,0,12.4,0c1.7,2.2,3.1,5.5,5.3,6.3c3.2,1.2,5.1-1.6,6.3-4.7c0.3-0.8,1.8-1.2,2.7-1.7
		c10.9,0,21.8,0.1,32.7,0.1c1.7,2.2,2.9,5.1,5.1,6.2c1,0.5,3.8-2.5,5.8-3.9c1.1-0.8,2.2-1.6,3.4-2.5c2.9,0,5.9,0,8.8,0
		C987.2,558.4,987.5,559.7,987.9,561z"/>
	<path class="st11" d="M986.8,557.1c-2.9,0-5.9,0-8.8,0c0.1-1.2,0.2-2.3,0.2-3.5c3.3-0.1,6.6-0.5,9.9-0.2c4.4,0.4,6.1-0.9,5.9-5.7
		c-0.4-9.9,0-19.8,0-29.7c1,1.6,2.8,3.2,2.8,4.8c0.3,9.6,0,19.2,0.2,28.7c0.1,4-1.1,6-5.3,5.5C990.1,556.8,988.5,557.1,986.8,557.1z
		"/>
	<path class="st15" d="M905,514.1c-6.7,0.4-6.9,0.7-6.9,7.4c0,10.8,0,21.6,0,32.4c-1-0.7-2.8-1.3-2.9-2c-0.2-11.4-0.5-22.8,0.1-34.2
		c0.1-2.1,3.6-4.3,5.9-6C901.6,511.3,903.7,513.2,905,514.1z"/>
	<path class="st16" d="M916.7,557.2c-4.1,0-8.3,0-12.4,0c-1.1-1.1-2.2-2.2-3.3-3.3c3.3-0.2,6.5-0.3,9.8-0.6c2.6-0.3,5.8,1.4,7.1-3.2
		c0.3-1,5.7-0.8,8.7-0.7c0.5,0,0.8,2.3,1.3,3.6c-2.3,0.5-4.6,0.8-6.7,1.5C919.6,555.1,918.2,556.3,916.7,557.2z"/>
	<path class="st17" d="M961.6,507.9c0.1,1.8,0.2,3.6,0.3,6.2c-9.9,0-19.4,0-28.9,0c-0.8-4.6,0.8-6.4,5.8-6.2
		C946.4,508.3,954,507.9,961.6,507.9z"/>
	<path class="st18" d="M963.7,557.3c-10.9,0-21.8-0.1-32.7-0.1c0-1.1,0-2.2,0-3.3c9.6,0,19.2-0.2,28.8-0.1c3,0,4.9-0.6,4.3-4.6
		c2.9,0,5.5-0.2,8.1,0.1c0.9,0.1,1.6,1.7,2.4,2.5c-3.2,0.7-7.9-1.3-8.3,4.6C966.3,556.8,964.6,557,963.7,557.3z"/>
	<path class="st19" d="M963.7,557.3c0.9-0.3,2.6-0.5,2.6-0.9c0.4-5.9,5.1-3.8,8.3-4.6c1.2,0.6,2.4,1.2,3.6,1.8
		c-0.1,1.2-0.2,2.4-0.2,3.5c-1.1,0.8-2.2,1.7-3.4,2.5c-2,1.4-4.8,4.4-5.8,3.9C966.6,562.4,965.4,559.5,963.7,557.3z"/>
	<path class="st20" d="M961.6,507.9c-7.6,0-15.2,0.4-22.8,0c-5-0.3-6.6,1.5-5.8,6.2c-4.6,0.8-3-2.7-3.2-4.8
		c-0.2-2.2-0.1-4.4,3.1-4.4c8.6,0,17.2-0.1,25.9,0.1C959.7,505,960.6,506.9,961.6,507.9z"/>
	<path class="st21" d="M931,553.8c0,1.1,0,2.2,0,3.3c-0.9,0.6-2.4,0.9-2.7,1.7c-1.1,3.1-3.1,5.9-6.3,4.7c-2.2-0.8-3.6-4.1-5.3-6.3
		c1.5-0.9,2.9-2.1,4.5-2.7c2.2-0.8,4.5-1,6.7-1.5C928.9,553.3,930,553.6,931,553.8z"/>
	<path class="st8" d="M923,514.1c0.7-0.7,1.5-1.4,2.2-2.1C924.5,512.7,923.7,513.4,923,514.1z"/>
</g>
</svg>
